<svg xmlns="http://www.w3.org/2000/svg" width="11.022" height="15.027" viewBox="0 0 11.022 15.027">
  <path id="Path_69315" data-name="Path 69315" d="M169.454,26.587v-4.02a2.029,2.029,0,0,0-2.027-2.027h-4.432a2.029,2.029,0,0,0-2.027,2.027v4.02a1.489,1.489,0,0,0-1.268,1.472v6.019a1.49,1.49,0,0,0,1.49,1.49h8.042a1.49,1.49,0,0,0,1.49-1.49V28.059a1.489,1.489,0,0,0-1.268-1.472ZM162.995,22h4.432a.568.568,0,0,1,.568.568v4h-5.568v-4A.568.568,0,0,1,162.995,22Zm2.216,10.7a1.461,1.461,0,1,1,1.461-1.461A1.461,1.461,0,0,1,165.211,32.7Z" transform="translate(-159.7 -20.54)" fill="#fff" opacity="0.5"/>
</svg>
