<svg xmlns="http://www.w3.org/2000/svg" width="44" height="44" viewBox="0 0 44 44">
  <g id="Group_16271" data-name="Group 16271" transform="translate(-138 -651)">
    <circle id="Ellipse_209" data-name="Ellipse 209" cx="22" cy="22" r="22" transform="translate(138 651)" fill="#ffcc06" opacity="0.2"/>
    <g id="Group_13110" data-name="Group 13110" transform="translate(-5716.299 1226.742)">
      <path id="Path_31361" data-name="Path 31361" d="M149.784,158.48H164.6a.886.886,0,0,1,.825.825v13.567a.825.825,0,0,1-.825.825H149.784a.886.886,0,0,1-.825-.825V159.3a.825.825,0,0,1,.825-.825Z" transform="translate(5717.469 -718.18)" fill="#ffcc06"/>
      <path id="Path_31362" data-name="Path 31362" d="M240.3,91.281H225.12v1.65h14.353v13.116h1.65V92.106a.824.824,0,0,0-.825-.825Z" transform="translate(5645.047 -654.281)" fill="#ffcc06"/>
    </g>
  </g>
</svg>
