<svg xmlns="http://www.w3.org/2000/svg" width="38" height="38" viewBox="0 0 38 38">
  <g id="Group_20795" data-name="Group 20795" transform="translate(-266 -23)">
    <circle id="Ellipse_11" data-name="Ellipse 11" cx="19" cy="19" r="19" transform="translate(266 23)" fill="#f3f3f3" opacity="0.5"/>
    <path id="noun-dashboard-3846734" d="M169.545,95.074v5.962a1.442,1.442,0,0,1-1.442,1.442h-3.029a1.442,1.442,0,0,1-1.442-1.442V95.074a1.442,1.442,0,0,1,1.442-1.442H168.1a1.442,1.442,0,0,1,1.442,1.442Zm-1.442,8.5h-3.029a1.442,1.442,0,0,0-1.442,1.442v3.173a1.442,1.442,0,0,0,1.442,1.442H168.1a1.442,1.442,0,0,0,1.442-1.442v-3.173a1.442,1.442,0,0,0-1.442-1.442Zm10.087-3.548h-6.106a1.442,1.442,0,0,0-1.442,1.442v6.721a1.442,1.442,0,0,0,1.442,1.442h6.106a1.442,1.442,0,0,0,1.442-1.442v-6.721a1.442,1.442,0,0,0-1.442-1.442Zm0-6.394h-6.106a1.442,1.442,0,0,0-1.442,1.442v2.414a1.442,1.442,0,0,0,1.442,1.442h6.106a1.442,1.442,0,0,0,1.442-1.442V95.075a1.442,1.442,0,0,0-1.442-1.442Z" transform="translate(113.369 -59.633)" fill="#707070"/>
  </g>
</svg>
