<svg xmlns="http://www.w3.org/2000/svg" xmlns:xlink="http://www.w3.org/1999/xlink" width="179.725" height="61.18" viewBox="0 0 179.725 61.18">
  <defs>
    <radialGradient id="radial-gradient" cx="0.32" cy="0.48" r="0.802" gradientUnits="objectBoundingBox">
      <stop offset="0" stop-color="#35bbe3"/>
      <stop offset="1" stop-color="#2872a3"/>
    </radialGradient>
    <linearGradient id="linear-gradient" x1="0.685" y1="0.721" x2="0.459" y2="0.531" gradientUnits="objectBoundingBox">
      <stop offset="0" stop-color="#00a859"/>
      <stop offset="1" stop-color="#fac905"/>
    </linearGradient>
  </defs>
  <g id="Layer_x0020_1" transform="translate(-1516.87 -2550.575)">
    <text id="SNAP-ZED" transform="translate(1584.595 2580.575)" fill="#fac905" font-size="30" font-family="Impact"><tspan x="0" y="0">SNAP-ZED</tspan></text>
    <path id="Path_69303" data-name="Path 69303" d="M4666.3,4155.523v3.677a2.622,2.622,0,0,1-.383,1.561q-.693.932-2.858.933a4.669,4.669,0,0,1-2.4-.5,1.546,1.546,0,0,1-.672-.8,3.5,3.5,0,0,1-.182-1.191v-3.677a.33.33,0,0,0-.067-.226.486.486,0,0,0-.237-.125v-.157h2.046v.157a.48.48,0,0,0-.238.124.345.345,0,0,0-.067.228v3.275a4.145,4.145,0,0,0,.063.839.951.951,0,0,0,.235.454,2.77,2.77,0,0,0,3.148,0,.979.979,0,0,0,.229-.454,4.235,4.235,0,0,0,.062-.839v-3.275a.337.337,0,0,0-.066-.226.494.494,0,0,0-.238-.125v-.157h1.928v.157a.486.486,0,0,0-.237.125A.329.329,0,0,0,4666.3,4155.523Zm10.347,1.562v3.983a.332.332,0,0,0,.067.226.49.49,0,0,0,.238.125v.158h-1.919v-.158a.49.49,0,0,0,.238-.125.337.337,0,0,0,.067-.226v-5.549a.33.33,0,0,0-.067-.221.474.474,0,0,0-.238-.125v-.158h2.225v.158c-.138.034-.2.108-.2.221a.389.389,0,0,0,.133.254l3.63,3.759v-3.888a.325.325,0,0,0-.067-.221.47.47,0,0,0-.237-.125v-.158h1.918v.158a.483.483,0,0,0-.238.125.329.329,0,0,0-.066.221v5.549a.337.337,0,0,0,.066.226.5.5,0,0,0,.238.125v.158h-2.062v-.158c.135-.029.2-.1.2-.207,0-.064-.078-.175-.233-.336Zm14.64,3.983v-5.549a.33.33,0,0,0-.066-.221.483.483,0,0,0-.238-.125v-.158h2.046v.158a.439.439,0,0,0-.238.123.338.338,0,0,0-.066.223v5.548a.333.333,0,0,0,.068.228.448.448,0,0,0,.236.124v.157h-2.046v-.157a.49.49,0,0,0,.237-.125.333.333,0,0,0,.067-.227Zm13.535-1.384,1.732-3.863a1.029,1.029,0,0,0,.112-.379c0-.137-.107-.228-.318-.269v-.157h2.246v.157a.48.48,0,0,0-.294.12,2.893,2.893,0,0,0-.281.528l-2.271,4.9a1.311,1.311,0,0,0-.145.409c0,.164.1.258.3.289v.157h-2.257v-.157c.2-.03.3-.126.3-.293a1.339,1.339,0,0,0-.145-.4l-2.271-4.9a2.909,2.909,0,0,0-.282-.528.475.475,0,0,0-.294-.12v-.157h2.333v.157c-.211.042-.316.132-.316.269a1,1,0,0,0,.11.379Zm13.45-.99v1.8h4.207a.326.326,0,0,0,.222-.067.478.478,0,0,0,.125-.238h.157v1.692h-.157a.48.48,0,0,0-.125-.238.326.326,0,0,0-.222-.067h-5.948v-.158a.5.5,0,0,0,.238-.125.342.342,0,0,0,.066-.226v-5.543a.344.344,0,0,0-.066-.227.483.483,0,0,0-.238-.125v-.158h5.83a.326.326,0,0,0,.222-.067.494.494,0,0,0,.125-.238h.157v1.692h-.157a.5.5,0,0,0-.125-.238.324.324,0,0,0-.22-.068h-4.091v1.555h2.655a.323.323,0,0,0,.22-.068.476.476,0,0,0,.124-.237h.158V4159h-.158a.5.5,0,0,0-.124-.236.319.319,0,0,0-.22-.069Zm12.391.207v2.172a.333.333,0,0,0,.068.223.462.462,0,0,0,.236.123v.158h-2.046v-.158a.486.486,0,0,0,.237-.125.324.324,0,0,0,.067-.221v-5.548a.334.334,0,0,0-.067-.227.47.47,0,0,0-.237-.125v-.158h4.1a6.455,6.455,0,0,1,1.19.087,2.111,2.111,0,0,1,.768.3,1.544,1.544,0,0,1,.566.679,2.218,2.218,0,0,1,.177.885q0,1.608-1.783,1.882l1.274,1.8a3.918,3.918,0,0,0,.492.611.629.629,0,0,0,.381.151v.158h-2.372v-.158c.162-.026.244-.084.244-.171a1.226,1.226,0,0,0-.227-.419l-1.336-1.928h-1.739Zm0-1.082h2.211a5.408,5.408,0,0,0,.691-.03,1.072,1.072,0,0,0,.371-.119.875.875,0,0,0,0-1.423,1.054,1.054,0,0,0-.367-.124,6.158,6.158,0,0,0-.7-.025h-2.211v1.721Zm19.688-2.252-.782,1.542-.135-.077a.625.625,0,0,0,0-.078c0-.107-.093-.226-.278-.351a3.428,3.428,0,0,0-2.008-.594,2.928,2.928,0,0,0-.9.124,1.081,1.081,0,0,0-.46.29.611.611,0,0,0-.175.418q0,.372.445.5a7,7,0,0,0,.99.146l.755.078a6.136,6.136,0,0,1,1.088.2,2.537,2.537,0,0,1,.735.351,1.644,1.644,0,0,1,.517.62,1.845,1.845,0,0,1,.19.823,1.881,1.881,0,0,1-.446,1.231,2.394,2.394,0,0,1-1.254.724,4.953,4.953,0,0,1-1.358.179,5.781,5.781,0,0,1-2.568-.623,1.335,1.335,0,0,0-.322-.125.422.422,0,0,0-.2.1l-.14-.07.712-1.608.14.067v.062a.53.53,0,0,0,.2.4,2.629,2.629,0,0,0,.966.48,4.2,4.2,0,0,0,1.239.2,2.5,2.5,0,0,0,1.09-.216,1.052,1.052,0,0,0,.4-.32.678.678,0,0,0,.149-.416.482.482,0,0,0-.352-.468,4.692,4.692,0,0,0-.989-.177l-.741-.078c-.5-.052-.847-.1-1.053-.147a2.706,2.706,0,0,1-.614-.225,1.586,1.586,0,0,1-.687-.649,1.751,1.751,0,0,1-.227-.9,1.817,1.817,0,0,1,.572-1.377,3.146,3.146,0,0,1,2.252-.718,5.132,5.132,0,0,1,1.171.127,9.16,9.16,0,0,1,1.355.469,1.458,1.458,0,0,0,.341.11.394.394,0,0,0,.234-.11Zm10.1,3.127v1.8h4.208a.328.328,0,0,0,.222-.067.478.478,0,0,0,.124-.238h.158v1.692H4765a.48.48,0,0,0-.124-.238.328.328,0,0,0-.222-.067h-5.949v-.158a.494.494,0,0,0,.238-.125.337.337,0,0,0,.066-.226v-5.543a.339.339,0,0,0-.066-.227.482.482,0,0,0-.238-.125v-.158h5.831a.328.328,0,0,0,.222-.067.494.494,0,0,0,.124-.238h.157v1.692h-.157a.5.5,0,0,0-.124-.238.326.326,0,0,0-.22-.068h-4.092v1.555h2.655a.322.322,0,0,0,.22-.068.469.469,0,0,0,.125-.237h.157V4159h-.157a.49.49,0,0,0-.125-.236.319.319,0,0,0-.22-.069Z" transform="translate(-3072.418 -1566.982)" fill="#fefefe"/>
    <rect id="Rectangle_38779" data-name="Rectangle 38779" width="107.937" height="0.749" transform="translate(1585.684 2598.075)" fill="#fefefe"/>
    <path id="Path_69304" data-name="Path 69304" d="M4657.219,4771.878h2.451a.206.206,0,0,0,.138-.042.279.279,0,0,0,.075-.144h.1v1.029h-.1a.284.284,0,0,0-.075-.145.2.2,0,0,0-.138-.042h-3.51v-.1a.3.3,0,0,0,.145-.076.209.209,0,0,0,.04-.138v-3.375a.208.208,0,0,0-.04-.138.293.293,0,0,0-.145-.076v-.1h1.245v.1a.271.271,0,0,0-.146.075.21.21,0,0,0-.041.138Zm11.652-1.1v1.1h2.562a.2.2,0,0,0,.135-.042.279.279,0,0,0,.075-.144h.1v1.029h-.1a.284.284,0,0,0-.075-.145.2.2,0,0,0-.135-.042h-3.621v-.1a.3.3,0,0,0,.145-.076.2.2,0,0,0,.041-.138v-3.375a.2.2,0,0,0-.041-.138.284.284,0,0,0-.145-.076v-.1h3.549a.2.2,0,0,0,.136-.041.317.317,0,0,0,.075-.145h.1v1.03h-.1a.317.317,0,0,0-.075-.146.205.205,0,0,0-.134-.041h-2.49v.945h1.616a.2.2,0,0,0,.134-.041.3.3,0,0,0,.075-.145h.1v1.006h-.1a.308.308,0,0,0-.075-.144.2.2,0,0,0-.134-.042h-1.616Zm13.814.73h-1.8l-.271.563a.487.487,0,0,0-.056.185c0,.087.065.146.2.18v.1h-1.319v-.1a.351.351,0,0,0,.178-.082.781.781,0,0,0,.141-.228l1.467-3.065a.583.583,0,0,0,.07-.234c0-.09-.056-.153-.17-.192v-.1h1.415v.1c-.116.033-.173.091-.173.172a.429.429,0,0,0,.056.192l1.519,3.074a1.042,1.042,0,0,0,.169.268.376.376,0,0,0,.2.095v.1h-1.473v-.1c.129-.022.193-.082.193-.182a.481.481,0,0,0-.059-.182l-.277-.563Zm-.249-.544-.641-1.411-.651,1.411Zm10.687-.06v1.322a.2.2,0,0,0,.042.136.274.274,0,0,0,.144.075v.1h-1.245v-.1a.3.3,0,0,0,.145-.076.2.2,0,0,0,.041-.135v-3.377a.2.2,0,0,0-.041-.138.3.3,0,0,0-.145-.075v-.1h2.5a3.917,3.917,0,0,1,.725.053,1.292,1.292,0,0,1,.467.185.939.939,0,0,1,.345.413,1.346,1.346,0,0,1,.108.539q0,.978-1.086,1.145l.775,1.1a2.366,2.366,0,0,0,.3.373.381.381,0,0,0,.232.092v.1h-1.444v-.1c.1-.016.148-.051.148-.1a.743.743,0,0,0-.138-.254l-.812-1.174Zm0-.659h1.346a3.2,3.2,0,0,0,.421-.018.648.648,0,0,0,.226-.072.533.533,0,0,0,0-.866.646.646,0,0,0-.223-.075,3.737,3.737,0,0,0-.423-.016h-1.347Zm12.18-.447v2.425a.2.2,0,0,0,.041.138.3.3,0,0,0,.145.076v.1h-1.167v-.1a.3.3,0,0,0,.145-.076.209.209,0,0,0,.04-.138v-3.377a.2.2,0,0,0-.04-.135.3.3,0,0,0-.145-.075v-.1h1.354v.1c-.084.021-.125.065-.125.135a.239.239,0,0,0,.081.154l2.21,2.288v-2.366a.2.2,0,0,0-.04-.135.3.3,0,0,0-.146-.075v-.1h1.168v.1a.3.3,0,0,0-.146.075.2.2,0,0,0-.041.135v3.377a.209.209,0,0,0,.041.138.3.3,0,0,0,.146.076v.1h-1.256v-.1q.123-.027.123-.126c0-.039-.048-.107-.143-.2Zm17.1,2.734-1.47-2.759v2.45a.209.209,0,0,0,.041.138.3.3,0,0,0,.145.076v.1h-1.167v-.1a.3.3,0,0,0,.145-.076.209.209,0,0,0,.04-.138v-3.377a.2.2,0,0,0-.04-.135.3.3,0,0,0-.145-.075v-.1h1.533v.1a.156.156,0,0,0-.138.16.294.294,0,0,0,.041.135l1.085,2.056,1.1-2.021a.5.5,0,0,0,.072-.2c0-.08-.049-.125-.146-.135v-.1h1.508v.1a.288.288,0,0,0-.144.076.2.2,0,0,0-.041.135v3.377a.2.2,0,0,0,.041.138.288.288,0,0,0,.144.076v.1h-1.244v-.1a.275.275,0,0,0,.144-.075.208.208,0,0,0,.042-.139v-2.45Zm12.942-4.065a2.344,2.344,0,0,1,1.656.565,2.078,2.078,0,0,1,.337,2.6,2.163,2.163,0,0,1-1.986.972,2.333,2.333,0,0,1-1.648-.565,1.961,1.961,0,0,1-.5-.723,2.12,2.12,0,0,1,.157-1.88,2.18,2.18,0,0,1,1.981-.968Zm0,.677a1.377,1.377,0,0,0-.954.341,1.449,1.449,0,0,0,0,2.1,1.517,1.517,0,0,0,1.915,0,1.329,1.329,0,0,0,.347-.5,1.4,1.4,0,0,0,.106-.539,1.335,1.335,0,0,0-.453-1.069A1.435,1.435,0,0,0,4735.346,4769.148Zm11.4,1.761v1.321a.2.2,0,0,0,.041.136.283.283,0,0,0,.144.075v.1h-1.245v-.1a.3.3,0,0,0,.145-.076.194.194,0,0,0,.042-.135v-3.377a.2.2,0,0,0-.042-.138.288.288,0,0,0-.145-.075v-.1h2.5a3.925,3.925,0,0,1,.725.053,1.292,1.292,0,0,1,.467.185.939.939,0,0,1,.345.413,1.345,1.345,0,0,1,.107.539q0,.978-1.085,1.145l.775,1.1a2.366,2.366,0,0,0,.3.373.38.38,0,0,0,.231.092v.1h-1.443v-.1c.1-.016.148-.051.148-.1a.743.743,0,0,0-.138-.254l-.812-1.174h-1.06Zm0-.659h1.346a3.2,3.2,0,0,0,.421-.018.648.648,0,0,0,.226-.072.533.533,0,0,0,0-.866.653.653,0,0,0-.223-.075,3.757,3.757,0,0,0-.424-.016h-1.346Zm12.258.533v1.1h2.562a.2.2,0,0,0,.134-.042.279.279,0,0,0,.076-.144h.1v1.029h-.1a.285.285,0,0,0-.076-.145.194.194,0,0,0-.134-.042h-3.622v-.1a.3.3,0,0,0,.146-.076.209.209,0,0,0,.04-.138v-3.375a.208.208,0,0,0-.04-.138.292.292,0,0,0-.146-.076v-.1h3.55a.2.2,0,0,0,.135-.041.308.308,0,0,0,.075-.145h.1v1.03h-.1a.308.308,0,0,0-.075-.146.205.205,0,0,0-.134-.041H4759v.945h1.616a.2.2,0,0,0,.134-.041.282.282,0,0,0,.075-.145h.1v1.006h-.1a.291.291,0,0,0-.075-.144.2.2,0,0,0-.134-.042H4759Z" transform="translate(-3069.153 -2166.919)" fill="#fefefe"/>
    <path id="Path_69305" data-name="Path 69305" d="M1546.787,2551.92a29.779,29.779,0,0,1,14.295,3.631,28.484,28.484,0,1,0-2.111,53.617,29.92,29.92,0,1,1-12.184-57.248Z" fill-rule="evenodd" fill="url(#radial-gradient)"/>
    <path id="Path_69306" data-name="Path 69306" d="M1546.787,2551.92a29.779,29.779,0,0,1,14.295,3.631,28.484,28.484,0,1,0-2.111,53.617,29.92,29.92,0,1,1-12.184-57.248Z" fill="#fac905" fill-rule="evenodd"/>
    <path id="Path_69307" data-name="Path 69307" d="M1815.316,3100.528a27.149,27.149,0,0,0,51.522,16.443,38.318,38.318,0,0,0,2.591-10.672,10.592,10.592,0,0,1,3.062,3.5,38.759,38.759,0,0,0-5.2-12.926,38.792,38.792,0,0,1-2.1,11.494c.946-.521,2.2-1.63,3.138-2.117a26.21,26.21,0,0,1-.449,2.637,25.847,25.847,0,1,1-46.522-20.292,27.011,27.011,0,0,0-6.045,11.939h0Z" transform="translate(-291.133 -524.679)" fill-rule="evenodd" fill="url(#linear-gradient)"/>
    <path id="Path_69308" data-name="Path 69308" d="M2425.49,2815.835a3.252,3.252,0,1,1-3.252,3.252A3.253,3.253,0,0,1,2425.49,2815.835Zm-3.4-.22c.094-1.294,4.007-2.243,5.077-1.525l1.188,1.8-.105.019a3.713,3.713,0,0,0-2.759-1.03,4.556,4.556,0,0,0-3.7,2.2l-.024,0,.32-1.463h0Zm-3.232-.625.109-.081v0l4.334-3.226,5.531.392-1.653,1.447a5.16,5.16,0,0,0-2.8.018c-.838.2-2.283.7-2.7,1.615l-2.375-.136v2.325c.7,1.076-1.053,1.28-.345.06V2815l-.109-.006h0Zm-10.416,32.769c5.725-2.695,12.615-10.068,13.612-11.744,1.978-3.326,7.976-3.022,12-2.112,2.8.634,4.9,2.026,8.139,3.924-2.813-3.014-5.812-7.573-16.273-8.587l-.062-.007-.223-1.639.057.018c3.559,1.162,6.881,1.334,11.305-4.954-12.46,10.712-15.681-12.352-30.383,8.079,3.758-3.438,6.862-4.828,9.554-5.165,10.866-1.359-4.263,19.878-7.724,22.187h0Z" transform="translate(-869.861 -253.956)" fill="#00afef" fill-rule="evenodd"/>
    <path id="Path_69309" data-name="Path 69309" d="M2642.492,4024.26H2651v11.1a23.872,23.872,0,0,1-8.506,2.067Zm11.109-5.23h8.507v6.164a24.142,24.142,0,0,1-8.507,8.8Zm-22.321,10.46h8.506v7.94a23.917,23.917,0,0,1-7.6-1.693l-.909-.367Z" transform="translate(-1089.512 -1434.332)" fill="#00a859" fill-rule="evenodd"/>
    <path id="Path_69310" data-name="Path 69310" d="M2956.02,2820.326c.094-1.294,4.007-2.243,5.077-1.525l1.187,1.8-.1.019a3.712,3.712,0,0,0-2.759-1.03,4.556,4.556,0,0,0-3.7,2.2l-.024,0,.32-1.463Zm-3.232-.626.108-.081v0l4.334-3.226,5.532.392-1.653,1.447a5.163,5.163,0,0,0-2.8.018c-.837.2-2.282.705-2.695,1.615l-2.375-.136v2.325c.7,1.076-1.052,1.28-.345.06v-2.4l-.109-.006Z" transform="translate(-1403.775 -258.561)" fill="#fefefe" fill-rule="evenodd"/>
  </g>
</svg>
