<svg xmlns="http://www.w3.org/2000/svg" xmlns:xlink="http://www.w3.org/1999/xlink" width="368.226" height="175.237" viewBox="0 0 368.226 175.237">
  <defs>
    <linearGradient id="linear-gradient" x1="0.5" x2="0.5" y2="1" gradientUnits="objectBoundingBox">
      <stop offset="0" stop-color="#ffcc06"/>
      <stop offset="1" stop-color="#ffa62b"/>
    </linearGradient>
    <linearGradient id="linear-gradient-2" x1="0.5" x2="0.5" y2="1" gradientUnits="objectBoundingBox">
      <stop offset="0" stop-color="#ffcc06"/>
      <stop offset="1" stop-color="#ffa92a"/>
    </linearGradient>
  </defs>
  <g id="Group_16348" data-name="Group 16348" transform="translate(7891.412 2182.327)">
    <g id="Group_16302" data-name="Group 16302" transform="translate(-7887.585 -2182.327)">
      <path id="Path_33529" data-name="Path 33529" d="M174.07,115.229H124.919a9.153,9.153,0,0,0,0,18.306h40.506L171,138.613v-5.078h3.072a9.153,9.153,0,0,0,0-18.306Z" transform="translate(-88.703 -108.76)" fill="#ffcc06"/>
      <path id="Path_33530" data-name="Path 33530" d="M134.346,125.289a2.9,2.9,0,1,0-3.7,0,5.378,5.378,0,0,0-3.529,5.047c0,2.972,10.763,2.972,10.763,0A5.378,5.378,0,0,0,134.346,125.289Z" transform="translate(-93.698 -110.928)" fill="#00aeee"/>
      <g id="Group_16291" data-name="Group 16291" transform="translate(50.483 10.83)">
        <path id="Path_33531" data-name="Path 33531" d="M193.1,123.579h-35.22a.28.28,0,1,1,0-.56H193.1a.28.28,0,1,1,0,.56Z" transform="translate(-157.602 -123.019)" fill="#fff"/>
        <path id="Path_33532" data-name="Path 33532" d="M187.638,138.341H157.882a.28.28,0,1,1,0-.56h29.756a.28.28,0,1,1,0,.56Z" transform="translate(-157.602 -129.517)" fill="#fff"/>
        <path id="Path_33533" data-name="Path 33533" d="M179.535,131.427H157.882a.28.28,0,0,1,0-.56h21.653a.28.28,0,0,1,0,.56Z" transform="translate(-157.602 -126.474)" fill="#fff"/>
        <path id="Path_33534" data-name="Path 33534" d="M212.251,131.427H201.384a.28.28,0,0,1,0-.56h10.867a.28.28,0,0,1,0,.56Z" transform="translate(-176.751 -126.474)" fill="#fff"/>
      </g>
      <path id="Path_33535" data-name="Path 33535" d="M140.625,131.86a.836.836,0,0,1-.593-.246l-2.109-2.109a.84.84,0,1,1,1.187-1.187l1.515,1.516,4.073-4.073a.84.84,0,0,1,1.187,1.187l-4.666,4.666A.838.838,0,0,1,140.625,131.86Z" transform="translate(-98.348 -113.288)" fill="#fff"/>
      <g id="Group_16297" data-name="Group 16297" transform="translate(295.19 54.137)">
        <path id="Path_33536" data-name="Path 33536" d="M604.123,200.38H654.55a9.391,9.391,0,1,1,0,18.782H612.992l-5.717,5.21v-5.21h-3.152a9.391,9.391,0,1,1,0-18.782Z" transform="translate(-594.732 -200.38)" fill="#ffcc06"/>
        <g id="Group_16295" data-name="Group 16295" transform="translate(51.457 2.876)">
          <g id="Group_16294" data-name="Group 16294">
            <g id="Group_16293" data-name="Group 16293">
              <path id="Path_33537" data-name="Path 33537" d="M693.885,210.652a2.9,2.9,0,1,0-3.7,0,5.378,5.378,0,0,0-3.529,5.047c0,2.972,10.762,2.972,10.762,0A5.377,5.377,0,0,0,693.885,210.652Z" transform="translate(-686.651 -205.517)" fill="#00aeee"/>
              <g id="Group_16292" data-name="Group 16292" transform="translate(6.786 5.086)">
                <path id="Path_33538" data-name="Path 33538" d="M703.64,216.266h-1.39v-1.39a.273.273,0,0,0-.273-.273h-1.268a.273.273,0,0,0-.273.273v1.39h-1.389a.273.273,0,0,0-.273.273v1.269a.273.273,0,0,0,.273.273h1.389v1.39a.273.273,0,0,0,.273.273h1.268a.273.273,0,0,0,.273-.273v-1.39h1.39a.273.273,0,0,0,.273-.273v-1.269A.273.273,0,0,0,703.64,216.266Z" transform="translate(-698.773 -214.603)" fill="#fff"/>
              </g>
            </g>
          </g>
        </g>
        <g id="Group_16296" data-name="Group 16296" transform="translate(11.553 5.04)">
          <path id="Path_33539" data-name="Path 33539" d="M650.869,209.943H615.65a.28.28,0,0,1,0-.56h35.219a.28.28,0,0,1,0,.56Z" transform="translate(-615.37 -209.383)" fill="#fff"/>
          <path id="Path_33540" data-name="Path 33540" d="M645.4,224.7H615.65a.28.28,0,1,1,0-.56H645.4a.28.28,0,0,1,0,.56Z" transform="translate(-615.37 -215.881)" fill="#fff"/>
          <path id="Path_33541" data-name="Path 33541" d="M637.3,217.791H615.65a.28.28,0,1,1,0-.56H637.3a.28.28,0,1,1,0,.56Z" transform="translate(-615.37 -212.838)" fill="#fff"/>
          <path id="Path_33542" data-name="Path 33542" d="M670.018,217.791H659.151a.28.28,0,1,1,0-.56h10.867a.28.28,0,1,1,0,.56Z" transform="translate(-634.519 -212.838)" fill="#fff"/>
        </g>
      </g>
      <g id="Group_16299" data-name="Group 16299" transform="translate(234.725 0)">
        <path id="Path_33543" data-name="Path 33543" d="M493.19,103.673h34.738a6.469,6.469,0,1,1,0,12.938H493.19a6.469,6.469,0,0,1,0-12.938Z" transform="translate(-486.721 -103.673)" fill="#00aeee"/>
        <g id="Group_16298" data-name="Group 16298" transform="translate(10.073 3.781)">
          <path id="Path_33544" data-name="Path 33544" d="M531.927,110.988H504.994a.28.28,0,1,1,0-.56h26.933a.28.28,0,1,1,0,.56Z" transform="translate(-504.714 -110.428)" fill="#fff"/>
          <path id="Path_33545" data-name="Path 33545" d="M527.749,119.73H504.994a.28.28,0,1,1,0-.56h22.755a.28.28,0,1,1,0,.56Z" transform="translate(-504.714 -114.276)" fill="#fff"/>
          <path id="Path_33546" data-name="Path 33546" d="M521.552,115.635H504.994a.28.28,0,1,1,0-.56h16.559a.28.28,0,1,1,0,.56Z" transform="translate(-504.714 -112.474)" fill="#fff"/>
          <path id="Path_33547" data-name="Path 33547" d="M546.571,115.635h-8.31a.28.28,0,1,1,0-.56h8.31a.28.28,0,1,1,0,.56Z" transform="translate(-519.358 -112.474)" fill="#fff"/>
        </g>
      </g>
      <g id="Group_16301" data-name="Group 16301" transform="translate(0 91.713)">
        <path id="Path_33548" data-name="Path 33548" d="M73.175,267.5h30.888a5.752,5.752,0,1,1,0,11.5H73.175a5.752,5.752,0,0,1,0-11.5Z" transform="translate(-67.423 -267.504)" fill="#00aeee"/>
        <g id="Group_16300" data-name="Group 16300" transform="translate(8.926 3.331)">
          <path id="Path_33549" data-name="Path 33549" d="M107.6,274.015H83.647a.28.28,0,0,1,0-.56H107.6a.28.28,0,0,1,0,.56Z" transform="translate(-83.367 -273.455)" fill="#fff"/>
          <path id="Path_33550" data-name="Path 33550" d="M103.88,281.788H83.647a.28.28,0,1,1,0-.56H103.88a.28.28,0,1,1,0,.56Z" transform="translate(-83.367 -276.877)" fill="#fff"/>
          <path id="Path_33551" data-name="Path 33551" d="M98.37,278.147H83.647a.28.28,0,1,1,0-.56H98.37a.28.28,0,1,1,0,.56Z" transform="translate(-83.367 -275.274)" fill="#fff"/>
          <path id="Path_33552" data-name="Path 33552" d="M120.616,278.147h-7.389a.28.28,0,0,1,0-.56h7.389a.28.28,0,0,1,0,.56Z" transform="translate(-96.388 -275.274)" fill="#fff"/>
        </g>
      </g>
    </g>
    <g id="Group_16305" data-name="Group 16305" transform="translate(-7770.766 -2060.07)">
      <g id="Group_16303" data-name="Group 16303" transform="translate(62.07 0)">
        <path id="Path_33553" data-name="Path 33553" d="M442.141,322.626H387.26a.28.28,0,1,1,0-.56h54.881a.28.28,0,1,1,0,.56Z" transform="translate(-386.98 -322.066)" fill="#fff"/>
        <path id="Path_33554" data-name="Path 33554" d="M448.836,345.63H402.469a.28.28,0,1,1,0-.56h46.367a.28.28,0,1,1,0,.56Z" transform="translate(-393.675 -332.192)" fill="#fff"/>
        <path id="Path_33555" data-name="Path 33555" d="M458.765,334.856h-33.74a.28.28,0,1,1,0-.56h33.74a.28.28,0,0,1,0,.56Z" transform="translate(-403.604 -327.45)" fill="#fff"/>
        <path id="Path_33556" data-name="Path 33556" d="M404.193,334.856H387.26a.28.28,0,1,1,0-.56h16.933a.28.28,0,1,1,0,.56Z" transform="translate(-386.98 -327.45)" fill="#fff"/>
      </g>
      <g id="Group_16304" data-name="Group 16304" transform="translate(0 20.427)">
        <path id="Path_33557" data-name="Path 33557" d="M331.263,359.116H276.382a.28.28,0,1,1,0-.56h54.881a.28.28,0,1,1,0,.56Z" transform="translate(-276.102 -358.556)" fill="#fff"/>
        <path id="Path_33558" data-name="Path 33558" d="M322.748,382.119H276.382a.28.28,0,0,1,0-.56h46.366a.28.28,0,0,1,0,.56Z" transform="translate(-276.102 -368.682)" fill="#fff"/>
        <path id="Path_33559" data-name="Path 33559" d="M310.122,371.345h-33.74a.28.28,0,1,1,0-.56h33.74a.28.28,0,1,1,0,.56Z" transform="translate(-276.102 -363.939)" fill="#fff"/>
        <path id="Path_33560" data-name="Path 33560" d="M361.1,371.345H344.169a.28.28,0,1,1,0-.56H361.1a.28.28,0,1,1,0,.56Z" transform="translate(-305.942 -363.939)" fill="#fff"/>
      </g>
    </g>
    <g id="Group_16327" data-name="Group 16327" transform="translate(-7701.765 -2159.607)">
      <g id="Group_16311" data-name="Group 16311" transform="translate(0 8.789)">
        <g id="Group_16310" data-name="Group 16310">
          <g id="Group_16309" data-name="Group 16309">
            <g id="Group_16307" data-name="Group 16307">
              <path id="Path_33561" data-name="Path 33561" d="M426.9,219.683l.018-.064,8.1-28.2-.035-.027a10.129,10.129,0,0,1,3.242-3.592,9.386,9.386,0,0,0,3.741-6.192c1.784-1.726,3.795-3.2,5.617-4.887a1.3,1.3,0,0,0,.444-.622,1.086,1.086,0,0,0-.231-.81,3.217,3.217,0,0,0-4.106-.951,10.038,10.038,0,0,0-2.3,1.5,11.45,11.45,0,0,0-1.824,1.56l6.447-13.766a2.293,2.293,0,0,0-.832-3.1h0a1.916,1.916,0,0,0-1.628.033,2.593,2.593,0,0,0-.9.714l.031-.161c-7.551-6.349-16.867,15.262-16.867,15.262l-2.644,6.239-22.426,41.581a12.081,12.081,0,0,0,5.4,16.48h0c.088.043.177.081.266.121a12.179,12.179,0,0,0,6.108,1.635h44.135l9.51-22.6Zm12.574-42.071Z" transform="translate(-399.362 -159.959)" fill="#fec29e"/>
              <g id="Group_16306" data-name="Group 16306" transform="translate(19.195 59.66)">
                <path id="Path_33562" data-name="Path 33562" d="M445.4,274.512l-1.13,3.93C444.682,277.083,445.068,275.752,445.4,274.512Z" transform="translate(-438.326 -270.045)" fill="none"/>
                <path id="Path_33563" data-name="Path 33563" d="M434.434,307.268Z" transform="translate(-433.651 -284.453)" fill="#ff887c" opacity="0.17"/>
                <path id="Path_33564" data-name="Path 33564" d="M435.063,307.287l.362.011Z" transform="translate(-434.273 -284.472)" fill="#ff887c" opacity="0.17"/>
                <path id="Path_33565" data-name="Path 33565" d="M442.916,266.532,441.632,271c-.334,1.24-.719,2.571-1.13,3.93l-1.552,5.4a12.161,12.161,0,0,1-.8,1.969c-1.336,4-2.437,7.061-2.437,7.061l15.872-22.727C447.633,266.631,446.727,266.536,442.916,266.532Z" transform="translate(-434.557 -266.532)" fill="#ff887c" opacity="0.17"/>
                <path id="Path_33566" data-name="Path 33566" d="M435.049,307.287h0Z" transform="translate(-434.266 -284.472)" fill="#ff887c" opacity="0.17"/>
              </g>
              <path id="Path_33567" data-name="Path 33567" d="M459.779,191.469a.279.279,0,0,1-.225-.446,5.129,5.129,0,0,1,6.641-1.735.28.28,0,0,1-.274.488A4.514,4.514,0,0,0,460,191.356.278.278,0,0,1,459.779,191.469Z" transform="translate(-425.834 -172.616)" fill="#fb8e77"/>
              <path id="Path_33568" data-name="Path 33568" d="M472.556,162.02a42.736,42.736,0,0,0-3.205,4.612,20.916,20.916,0,0,0-1.274,2.48,6.108,6.108,0,0,0-.6,2.606v.017a.28.28,0,0,1-.559.03v-.007a6.557,6.557,0,0,1,.7-2.845,21.374,21.374,0,0,1,1.354-2.514,43.178,43.178,0,0,1,3.331-4.593.167.167,0,0,1,.26.21Z" transform="translate(-429.1 -160.746)" fill="#fb8e77"/>
              <path id="Path_33569" data-name="Path 33569" d="M468.618,160.554a10.522,10.522,0,0,0-1.995,1.881,16.723,16.723,0,0,0-1.585,2.269,20.15,20.15,0,0,0-1.21,2.493c-.183.425-.32.869-.481,1.3l-.4,1.329-.005.016a.28.28,0,0,1-.536-.162l0-.005.436-1.351c.174-.441.322-.891.518-1.323a20.521,20.521,0,0,1,1.289-2.531,17.137,17.137,0,0,1,1.67-2.3,10.825,10.825,0,0,1,2.119-1.917.174.174,0,0,1,.194.288Z" transform="translate(-427.108 -160.077)" fill="#fb8e77"/>
              <path id="Path_33570" data-name="Path 33570" d="M463.854,160.973a27.28,27.28,0,0,0-2.931,3.622,15.534,15.534,0,0,0-1.155,2,8.2,8.2,0,0,0-.706,2.15v.007a.28.28,0,0,1-.553-.087v-.007a8.709,8.709,0,0,1,.809-2.283,16.053,16.053,0,0,1,1.24-2.035,27.6,27.6,0,0,1,3.068-3.6.163.163,0,0,1,.233.228Z" transform="translate(-425.396 -160.282)" fill="#fb8e77"/>
            </g>
            <g id="Group_16308" data-name="Group 16308" transform="translate(39.4 59.642)">
              <path id="Path_33571" data-name="Path 33571" d="M559.743,307.637l-10.826-29.511c-1.289-6.476-7.449-11.385-14.86-11.385l-30.242-.241-34.071.13v22.714h10.574l-5.458,59.242,75.026.424-.42-40.116Z" transform="translate(-469.743 -266.5)" fill="url(#linear-gradient)"/>
              <path id="Path_33572" data-name="Path 33572" d="M497.381,337.332" transform="translate(-481.909 -297.68)" fill="none" stroke="#fb8e77" stroke-linecap="round" stroke-width="1"/>
            </g>
            <path id="Path_33573" data-name="Path 33573" d="M503.755,266.753l.059-.253-34.071.13v22.714h10.574l.055-.6C480.372,276.757,490.793,267.016,503.755,266.753Z" transform="translate(-430.343 -206.858)" fill="#ffcc06" opacity="0.05"/>
            <path id="Path_33574" data-name="Path 33574" d="M453.584,208.238s1.912,16.242,2.025,15.851l3.281-11.413Z" transform="translate(-423.23 -181.211)" fill="#ff887c" opacity="0.18"/>
          </g>
        </g>
      </g>
      <g id="Group_16314" data-name="Group 16314" transform="translate(54.073 90.526)">
        <g id="Group_16312" data-name="Group 16312">
          <path id="Path_33575" data-name="Path 33575" d="M516.895,333.49l-2.863-14.431-2.209-11.134a2.434,2.434,0,0,0-2.854-1.908l-11.059,2.194A2.435,2.435,0,0,0,496,311.064l2.223,11.206,1.764,8.889,1.085,5.47a2.435,2.435,0,0,0,2.854,1.909l6.532-1.3,4.527-.9A2.435,2.435,0,0,0,516.895,333.49Z" transform="translate(-495.954 -305.97)" fill="#1b1b25"/>
        </g>
        <g id="Group_16313" data-name="Group 16313" transform="translate(0.473 13.089)">
          <path id="Path_33576" data-name="Path 33576" d="M576.134,357.081l-4.987-21.716-22.674,2.774,1.245,5.524-.115-.029-24.649-6.1-.021.03a8.254,8.254,0,0,1-3.082-2.833,7.378,7.378,0,0,0-5.539-3.174c-.669-.7-1.292-1.45-1.908-2.206l.578,2.911-.144.076a9.337,9.337,0,0,1-5.1,1.06l-10.838-.846a1.65,1.65,0,0,0-1.621.922c-3.172,6.668,10.448,12.77,13.557,14.059h0l.109.045.127.053.119.048.1.04.093.036.036.014.046.018,5.331,2,42.2,20.772a12.25,12.25,0,0,0,1.188.494,10.533,10.533,0,0,0,6.765.7h0A12.24,12.24,0,0,0,576.134,357.081Z" transform="translate(-496.798 -329.351)" fill="#fec29e"/>
          <path id="Path_33577" data-name="Path 33577" d="M615.159,356.991,589.1,345.05c.87,3.789.363,2.117,1.13,5.5l1.773.439C599.51,351.491,615.159,356.991,615.159,356.991Z" transform="translate(-537.431 -336.262)" fill="#ff887c" opacity="0.17"/>
        </g>
        <path id="Path_33578" data-name="Path 33578" d="M582.564,332.711a.28.28,0,0,1-.274-.223l-3.255-15.769a.28.28,0,0,1,.548-.114l3.2,15.515,10.964-1.4a.28.28,0,1,1,.071.555L582.6,332.709Z" transform="translate(-532.523 -310.553)" fill="#1b1b25" opacity="0.35"/>
      </g>
      <g id="Group_16315" data-name="Group 16315" transform="translate(132.273 124.345)">
        <path id="Path_33579" data-name="Path 33579" d="M635.963,367.984l.044.223Z" transform="translate(-635.786 -367.087)" fill="#ff887c" opacity="0.17"/>
        <path id="Path_33580" data-name="Path 33580" d="M636.042,368.383Z" transform="translate(-635.82 -367.262)" fill="#ff887c" opacity="0.17"/>
        <path id="Path_33581" data-name="Path 33581" d="M635.646,366.381s.06.3.118.6Z" transform="translate(-635.646 -366.381)" fill="#ff887c" opacity="0.17"/>
        <path id="Path_33582" data-name="Path 33582" d="M635.857,367.45l.059.3C635.9,367.66,635.878,367.557,635.857,367.45Z" transform="translate(-635.739 -366.852)" fill="#ff887c" opacity="0.17"/>
      </g>
      <g id="Group_16326" data-name="Group 16326" transform="translate(61.022 0)">
        <g id="Group_16317" data-name="Group 16317">
          <path id="Path_33583" data-name="Path 33583" d="M548.892,154.465a8.918,8.918,0,0,0-13.332-6.429,7.854,7.854,0,0,0-12.182-1.56,10.367,10.367,0,0,0-11.491,17.052l-2.108,11.262a5.955,5.955,0,0,0,4.758,6.949l24.981,4.677a5.956,5.956,0,0,0,6.949-4.758l4.093-21.861A5.949,5.949,0,0,0,548.892,154.465Z" transform="translate(-508.368 -144.259)" fill="#1b1b25"/>
          <g id="Group_16316" data-name="Group 16316" transform="translate(2.255 4.547)">
            <path id="Path_33584" data-name="Path 33584" d="M514.255,164.2a.282.282,0,0,1-.237-.13,8.4,8.4,0,0,1,1.747-11.634.28.28,0,0,1,.326.455c-.238.171-5.776,4.271-1.6,10.881a.28.28,0,0,1-.237.429Z" transform="translate(-512.395 -152.382)" fill="#fcf0e3"/>
          </g>
        </g>
        <g id="Group_16319" data-name="Group 16319" transform="translate(0.655 18.887)">
          <g id="Group_16318" data-name="Group 16318">
            <path id="Path_33585" data-name="Path 33585" d="M545.367,191.4l-.546-.1-5.515-11.853A8.926,8.926,0,0,1,535.575,178a6.715,6.715,0,0,1-9.48.4,10.357,10.357,0,0,1-12.521.882l-3.841,20.52a11.3,11.3,0,0,0,1.424,7.908,11.479,11.479,0,0,0,8.077,6.9v13.55a8.583,8.583,0,0,0,8.558,8.558h2.7a8.583,8.583,0,0,0,8.558-8.558V212.769a11.432,11.432,0,0,0,2.8-5.61l.7-3.747.546.1a6.015,6.015,0,0,0,7-4.791l.062-.329A6.015,6.015,0,0,0,545.367,191.4Z" transform="translate(-509.539 -177.998)" fill="#fec29e"/>
          </g>
          <path id="Path_33586" data-name="Path 33586" d="M542.554,222.547l-.5,2.673A11.359,11.359,0,0,1,528.8,234.3l-8.718-1.632a11.318,11.318,0,0,1-7.651-5.347,11.485,11.485,0,0,0,8.544,7.01l.348.065a8.577,8.577,0,0,0,7.705,4.868h2.734a8.585,8.585,0,0,0,8.326-6.616,11.439,11.439,0,0,0,3.036-5.873l.7-3.747Z" transform="translate(-510.811 -197.608)" fill="#ff887c" opacity="0.32"/>
        </g>
        <g id="Group_16325" data-name="Group 16325" transform="translate(2.302 26.244)">
          <path id="Path_33587" data-name="Path 33587" d="M572.464,212.524a.281.281,0,0,1-.171-.059l-2.178-1.691a.282.282,0,0,1-.107-.208.278.278,0,0,1,.087-.217l2.686-2.535a.28.28,0,0,1,.383.408l-2.448,2.311,1.92,1.49a.28.28,0,0,1-.172.5Z" transform="translate(-537.803 -198.447)" fill="#fb8e77"/>
          <g id="Group_16324" data-name="Group 16324" transform="translate(0)">
            <g id="Group_16323" data-name="Group 16323" transform="translate(2.696)">
              <g id="Group_16322" data-name="Group 16322">
                <g id="Group_16320" data-name="Group 16320" transform="translate(12.922)">
                  <path id="Path_33588" data-name="Path 33588" d="M545.571,194.8a3.317,3.317,0,0,1-1.286-.489c-.431-.233-.869-.456-1.257-.636s-.842-.374-1.3-.554a3.291,3.291,0,0,1-1.2-.669c-.268-.3-.215-.764.411-1.076a3.8,3.8,0,0,1,3.1.212,3.681,3.681,0,0,1,2.122,2.221C546.31,194.483,545.974,194.818,545.571,194.8Z" transform="translate(-540.38 -191.14)" fill="#1b1b25"/>
                </g>
                <g id="Group_16321" data-name="Group 16321" transform="translate(0 0.462)">
                  <path id="Path_33589" data-name="Path 33589" d="M517.6,193.63a3.723,3.723,0,0,0,1.346.278c.488.042.977.1,1.4.155s.91.142,1.391.236a3.706,3.706,0,0,0,1.368.1c.383-.086.584-.457.218-1a4.062,4.062,0,0,0-2.735-1.383,3.9,3.9,0,0,0-2.967.584C517.14,193.028,517.248,193.442,517.6,193.63Z" transform="translate(-517.297 -191.966)" fill="#1b1b25"/>
                </g>
              </g>
            </g>
            <rect id="Rectangle_38577" data-name="Rectangle 38577" width="1.424" height="2.288" rx="0.712" transform="matrix(-0.983, -0.184, 0.184, -0.983, 17.411, 8.581)" fill="#1b1b25"/>
            <rect id="Rectangle_38578" data-name="Rectangle 38578" width="1.424" height="2.288" rx="0.712" transform="matrix(-0.983, -0.184, 0.184, -0.983, 5.344, 6.62)" fill="#1b1b25"/>
            <path id="Rectangle_38579" data-name="Rectangle 38579" d="M.881,0H3.327a.882.882,0,0,1,.882.882v0a.881.881,0,0,1-.881.881H.882A.882.882,0,0,1,0,.881v0A.881.881,0,0,1,.881,0Z" transform="translate(20.52 12.029) rotate(-173.583)" fill="#ff887c" opacity="0.17"/>
            <path id="Rectangle_38580" data-name="Rectangle 38580" d="M.882,0H3.328a.881.881,0,0,1,.881.881v0a.882.882,0,0,1-.882.882H.881A.881.881,0,0,1,0,.882v0A.882.882,0,0,1,.882,0Z" transform="matrix(-0.994, -0.112, 0.112, -0.994, 4.182, 9.455)" fill="#ff887c" opacity="0.17"/>
            <path id="Path_33590" data-name="Path 33590" d="M526.679,229.226a.28.28,0,0,1-.165-.506,2.647,2.647,0,0,1,3.018,0,.28.28,0,0,1-.321.459,2.1,2.1,0,0,0-2.367,0A.279.279,0,0,1,526.679,229.226Z" transform="translate(-518.608 -207.472)" fill="#fb8e77"/>
            <path id="Path_33591" data-name="Path 33591" d="M530.281,215.051l6.547-.935-.717,2.274a3.5,3.5,0,0,1-3.335,2.446h0a2.323,2.323,0,0,1-2.31-2.076Z" transform="translate(-520.316 -201.254)" fill="#fff"/>
            <path id="Path_33592" data-name="Path 33592" d="M529.972,203.467a.281.281,0,0,1-.071-.01l-2.03-.528a2.856,2.856,0,0,1-1.777-4.15l3.091-5.564a.28.28,0,1,1,.49.271l-3.091,5.564a2.3,2.3,0,0,0,1.429,3.336l2.03.528a.28.28,0,0,1-.071.551Z" transform="translate(-518.314 -191.99)" fill="#fb8e77"/>
          </g>
        </g>
      </g>
    </g>
    <g id="Group_16346" data-name="Group 16346" transform="translate(-7848.791 -2145.935)">
      <g id="Group_16331" data-name="Group 16331" transform="translate(4.339 0)">
        <g id="Group_16330" data-name="Group 16330">
          <g id="Group_16328" data-name="Group 16328" transform="translate(75.31)">
            <path id="Path_33593" data-name="Path 33593" d="M326.3,233.015l-22.426-41.581-2.644-6.24s-9.317-21.611-16.867-15.261l.031.16a2.591,2.591,0,0,0-.9-.714,1.915,1.915,0,0,0-1.629-.033h0a2.293,2.293,0,0,0-.832,3.1l6.447,13.766a11.391,11.391,0,0,0-1.823-1.56,10,10,0,0,0-2.3-1.5,3.217,3.217,0,0,0-4.106.951,1.083,1.083,0,0,0-.231.81,1.3,1.3,0,0,0,.443.622c1.822,1.687,3.832,3.16,5.617,4.887a9.382,9.382,0,0,0,3.74,6.191,10.129,10.129,0,0,1,3.242,3.592l-.035.026,8.123,28.259-11.863.158v22.6h26.235a12.175,12.175,0,0,0,6.115-1.639c.086-.04.173-.076.259-.118h0A12.081,12.081,0,0,0,326.3,233.015Z" transform="translate(-279.003 -168.719)" fill="#fec29e"/>
            <path id="Path_33594" data-name="Path 33594" d="M317.168,298.164h0s-6.1-16.4-7.144-22.826c-4.039,0-4.654.18-8.693.18Z" transform="translate(-288.832 -215.631)" fill="#ff887c" opacity="0.17"/>
            <path id="Path_33595" data-name="Path 33595" d="M300.174,200.276a.279.279,0,0,1-.226-.114,4.512,4.512,0,0,0-5.917-1.579.28.28,0,0,1-.274-.489,5.13,5.13,0,0,1,6.64,1.735.28.28,0,0,1-.059.392A.277.277,0,0,1,300.174,200.276Z" transform="translate(-285.435 -181.376)" fill="#fb8e77"/>
            <path id="Path_33596" data-name="Path 33596" d="M288.554,170.6a23.549,23.549,0,0,1,1.885,2.15,23.28,23.28,0,0,1,1.622,2.357,17.274,17.274,0,0,1,1.255,2.588,11.016,11.016,0,0,1,.629,2.836.28.28,0,1,1-.558.044v-.016a10.527,10.527,0,0,0-.545-2.694,16.786,16.786,0,0,0-1.167-2.534,23.005,23.005,0,0,0-1.546-2.343,23.307,23.307,0,0,0-1.81-2.149l0,0a.167.167,0,0,1,.238-.234Z" transform="translate(-283.082 -169.505)" fill="#fb8e77"/>
            <path id="Path_33597" data-name="Path 33597" d="M291.96,168.7a7.375,7.375,0,0,1,2.207,1.913,15.161,15.161,0,0,1,1.609,2.4,24.846,24.846,0,0,1,1.241,2.6l.509,1.346.452,1.365a.28.28,0,1,1-.531.176v0l0-.013-.42-1.351-.476-1.332a24.112,24.112,0,0,0-1.168-2.569,14.73,14.73,0,0,0-1.521-2.362,7.13,7.13,0,0,0-2.032-1.846l-.026-.015a.173.173,0,0,1,.162-.306Z" transform="translate(-284.595 -168.682)" fill="#fb8e77"/>
            <path id="Path_33598" data-name="Path 33598" d="M297.443,169.534a13.953,13.953,0,0,1,1.71,1.667,16.106,16.106,0,0,1,1.438,1.9,15.182,15.182,0,0,1,1.152,2.092,15.733,15.733,0,0,1,.826,2.249.28.28,0,0,1-.536.161l0-.005,0-.014a15.147,15.147,0,0,0-.743-2.188,14.623,14.623,0,0,0-1.068-2.057,15.727,15.727,0,0,0-1.356-1.887,13.619,13.619,0,0,0-1.618-1.659l-.007-.006a.163.163,0,0,1,.208-.251Z" transform="translate(-287.003 -169.041)" fill="#fb8e77"/>
            <path id="Path_33599" data-name="Path 33599" d="M300.463,221.276l8.666-1.07-5.359,10.66S302.175,222.939,300.463,221.276Z" transform="translate(-288.45 -191.362)" fill="#ff887c" opacity="0.18"/>
          </g>
          <g id="Group_16329" data-name="Group 16329" transform="translate(0 59.819)">
            <path id="Path_33600" data-name="Path 33600" d="M196.972,275.649l0,.01c-.134,0-.266-.01-.4-.01H169.189a13.907,13.907,0,0,0-13,8.982h0l-.041.114-.02.054-11.647,31.747,10.812,1.323v35.256h58.842l4.4-54.872h10.236V275.539Z" transform="translate(-144.474 -275.539)" fill="url(#linear-gradient-2)"/>
            <path id="Path_33601" data-name="Path 33601" d="M271.005,275.539l-31.261.13v0a22,22,0,0,1,21.073,21.98l-.048.6h10.236Z" transform="translate(-186.411 -275.539)" fill="#ffcc06" opacity="0.05"/>
            <path id="Path_33602" data-name="Path 33602" d="M278.149,346.139" transform="translate(-203.317 -306.617)" fill="none" stroke="#fb8e77" stroke-linecap="round" stroke-width="1"/>
          </g>
        </g>
      </g>
      <g id="Group_16334" data-name="Group 16334" transform="translate(0 81.784)">
        <path id="Path_33603" data-name="Path 33603" d="M261.118,317.017l-11.059-2.194a2.435,2.435,0,0,0-2.854,1.909L245,327.865,242.133,342.3a2.435,2.435,0,0,0,1.909,2.854l4.527.9,6.532,1.3a2.434,2.434,0,0,0,2.853-1.908l1.085-5.47,1.763-8.888,2.224-11.206A2.435,2.435,0,0,0,261.118,317.017Z" transform="translate(-183.104 -314.776)" fill="#1b1b25"/>
        <g id="Group_16333" data-name="Group 16333" transform="translate(0 4.681)">
          <path id="Path_33604" data-name="Path 33604" d="M215.9,342.168a1.607,1.607,0,0,0-.62-.68c-.047-.069-.085-.139-.136-.208l-.265.033a1.664,1.664,0,0,0-.6-.067l-10.838.846a9.339,9.339,0,0,1-5.1-1.06l-.262-.139.543-2.735c-.586.717-1.179,1.425-1.809,2.095a7.575,7.575,0,0,0-3.851,1.453,6.95,6.95,0,0,0-1.786,1.831,8.852,8.852,0,0,1-2,2.152,6.9,6.9,0,0,1-.926.568l-.021-.03-24.65,6.1-.114.028,1.251-5.55-22.68-2.748-4.987,21.716a12.24,12.24,0,0,0,9.19,14.669h0a10.527,10.527,0,0,0,6.765-.7,12.315,12.315,0,0,0,1.188-.494L195.9,358.715l5.655-2.12s.229-.088.629-.254l-.083-.016C204.686,355.273,219.155,349.019,215.9,342.168Z" transform="translate(-136.723 -329.749)" fill="#fec29e"/>
          <g id="Group_16332" data-name="Group 16332" transform="translate(1.546 17.171)">
            <path id="Path_33605" data-name="Path 33605" d="M139.538,376.756c-.023.119-.038.191-.044.224Z" transform="translate(-139.489 -363.911)" fill="#ff887c" opacity="0.17"/>
            <path id="Path_33606" data-name="Path 33606" d="M164.806,359.332c.511-2.35.363-2.147,1.138-5.522l-26.06,11.967s2.582-.778,6.146-1.723c.331-.12.668-.232,1.016-.326Z" transform="translate(-139.661 -353.81)" fill="#ff887c" opacity="0.17"/>
            <path id="Path_33607" data-name="Path 33607" d="M139.637,376.184l-.064.32C139.589,376.422,139.61,376.315,139.637,376.184Z" transform="translate(-139.524 -363.659)" fill="#ff887c" opacity="0.17"/>
            <path id="Path_33608" data-name="Path 33608" d="M139.49,377.157c-.007.033-.007.035,0,0Z" transform="translate(-139.485 -364.087)" fill="#ff887c" opacity="0.17"/>
            <path id="Path_33609" data-name="Path 33609" d="M139.8,375.188l-.11.558Z" transform="translate(-139.574 -363.221)" fill="#ff887c" opacity="0.17"/>
          </g>
          <path id="Path_33610" data-name="Path 33610" d="M186.074,340.588l-.034,0-4.948-.611a.28.28,0,1,1,.068-.555l4.679.577,2.6-16.623a.28.28,0,0,1,.554.086l-2.647,16.891A.28.28,0,0,1,186.074,340.588Z" transform="translate(-156.146 -323.138)" fill="#1b1b25" opacity="0.35"/>
        </g>
        <path id="Path_33611" data-name="Path 33611" d="M200.511,356.412l11.171-.28c2.084.274,5.4-1.607,5.016-3.673h0Z" transform="translate(-164.802 -331.364)" fill="#ff887c" opacity="0.08"/>
      </g>
      <g id="Group_16345" data-name="Group 16345" transform="translate(16.832 1.871)">
        <g id="Group_16335" data-name="Group 16335">
          <path id="Path_33612" data-name="Path 33612" d="M220.911,222.931l-3.8-25.856a28.581,28.581,0,0,0-2.394-7.97l2.063-.331s-1.448-20.987-24.986-15.976a28.613,28.613,0,0,0-7.116.154h0A20.927,20.927,0,0,0,167.016,196.7l2.215,15.073a20.928,20.928,0,0,0,23.747,17.663l25.93-3.81A2.373,2.373,0,0,0,220.911,222.931Z" transform="translate(-166.791 -172.024)" fill="#1b1b25"/>
          <path id="Path_33613" data-name="Path 33613" d="M235.354,190.742a.28.28,0,0,1-.038-.558l7.57-1.033a.227.227,0,0,0,.152-.091.21.21,0,0,0,.038-.16c-1.224-6.823-7.509-9.97-7.573-10a.28.28,0,0,1,.246-.5c.066.032,6.6,3.3,7.878,10.405a.766.766,0,0,1-.137.588.789.789,0,0,1-.529.317l-7.569,1.034Z" transform="translate(-196.849 -174.816)" fill="#fcf0e3"/>
        </g>
        <g id="Group_16337" data-name="Group 16337" transform="translate(9.68 13.314)">
          <g id="Group_16336" data-name="Group 16336">
            <path id="Path_33614" data-name="Path 33614" d="M220.2,199.916l-20.719,3.329-5.029-7.438c.988,8.3-5.131,13.658-5.131,13.658s-.063-.086-.171-.243l-.172.032a6.016,6.016,0,0,0-4.791,7h0a6.015,6.015,0,0,0,7,4.791l.4-.074a15.43,15.43,0,0,0,4.484,7.848V242.1a8.584,8.584,0,0,0,8.558,8.558h0a8.584,8.584,0,0,0,8.558-8.558V231.612a15.532,15.532,0,0,0,7.6-7.623l.01-.015a15.3,15.3,0,0,0,1.909-10.7Z" transform="translate(-184.082 -195.808)" fill="#fec29e"/>
          </g>
          <path id="Path_33615" data-name="Path 33615" d="M216.33,250.848h0a15.368,15.368,0,0,1-17.437-10.339c-.077-.238-1.429.073-1.4.218a15.426,15.426,0,0,0,4.51,7.77,8.585,8.585,0,0,0,8.518,7.77h0a8.577,8.577,0,0,0,7.581-4.611,15.516,15.516,0,0,0,8.589-8.043A15.327,15.327,0,0,1,216.33,250.848Z" transform="translate(-189.988 -215.447)" fill="#ff887c" opacity="0.32"/>
        </g>
        <g id="Group_16344" data-name="Group 16344" transform="translate(13.173 20.213)">
          <path id="Path_33616" data-name="Path 33616" d="M191.1,230.191a.28.28,0,0,1-.172-.5l1.861-1.444L190.41,226a.28.28,0,1,1,.384-.408l2.614,2.466a.28.28,0,0,1-.021.425l-2.119,1.645A.278.278,0,0,1,191.1,230.191Z" transform="translate(-190.322 -215.785)" fill="#fb8e77"/>
          <g id="Group_16343" data-name="Group 16343" transform="translate(14.43)">
            <g id="Group_16342" data-name="Group 16342">
              <g id="Group_16341" data-name="Group 16341" transform="translate(0.88)">
                <g id="Group_16340" data-name="Group 16340">
                  <g id="Group_16338" data-name="Group 16338" transform="translate(0 2.027)">
                    <path id="Path_33617" data-name="Path 33617" d="M218.043,213.925a1.967,1.967,0,0,0,.764-.291c.256-.138.516-.271.746-.378s.5-.222.77-.329a1.957,1.957,0,0,0,.712-.4c.158-.176.128-.453-.244-.638a2.252,2.252,0,0,0-1.839.125,2.187,2.187,0,0,0-1.26,1.319C217.6,213.736,217.8,213.934,218.043,213.925Z" transform="translate(-217.671 -211.751)" fill="#1b1b25"/>
                  </g>
                  <g id="Group_16339" data-name="Group 16339" transform="translate(11.801)">
                    <path id="Path_33618" data-name="Path 33618" d="M242.172,209.748a1.969,1.969,0,0,1-.813-.068c-.284-.062-.571-.118-.822-.157s-.541-.075-.831-.1a1.95,1.95,0,0,1-.794-.185c-.2-.125-.248-.4.058-.681a2.251,2.251,0,0,1,1.8-.388,2.183,2.183,0,0,1,1.575.919C242.541,209.445,242.4,209.691,242.172,209.748Z" transform="translate(-238.751 -208.13)" fill="#1b1b25"/>
                  </g>
                </g>
              </g>
              <path id="Path_33619" data-name="Path 33619" d="M226.8,234.527a5.516,5.516,0,0,1-3.848-1.825.28.28,0,0,1,.43-.359,4.452,4.452,0,0,0,5.181,1.218.28.28,0,0,1,.235.508A4.722,4.722,0,0,1,226.8,234.527Z" transform="translate(-219.087 -218.745)" fill="#fb8e77"/>
              <path id="Path_33620" data-name="Path 33620" d="M232.641,222.663a.28.28,0,0,1-.054-.555l1.969-.387a2.264,2.264,0,0,0,1.782-2.655.819.819,0,0,0-.959-.644,1.914,1.914,0,0,1-2.245-1.506l-.475-2.414a.28.28,0,1,1,.549-.109l.475,2.415a1.354,1.354,0,0,0,1.588,1.065,1.376,1.376,0,0,1,1.616,1.085,2.824,2.824,0,0,1-2.223,3.313l-1.969.387A.254.254,0,0,1,232.641,222.663Z" transform="translate(-223.258 -210.787)" fill="#fb8e77"/>
              <path id="Path_33621" data-name="Path 33621" d="M222.133,222.341h0a.694.694,0,0,1-.808-.553l-.155-.826a.7.7,0,0,1,.554-.808h0a.7.7,0,0,1,.808.554l.155.826A.7.7,0,0,1,222.133,222.341Z" transform="translate(-218.326 -213.418)" fill="#1b1b25"/>
              <path id="Path_33622" data-name="Path 33622" d="M243.1,218.934h0a.7.7,0,0,1-.808-.554l-.155-.826a.7.7,0,0,1,.554-.808h0a.7.7,0,0,1,.808.553l.155.826A.7.7,0,0,1,243.1,218.934Z" transform="translate(-227.557 -211.918)" fill="#1b1b25"/>
              <path id="Path_33623" data-name="Path 33623" d="M219.417,228.3l-2.364.266a.861.861,0,0,1-.948-.757h0a.861.861,0,0,1,.757-.948l2.363-.265a.859.859,0,0,1,.948.756h0A.86.86,0,0,1,219.417,228.3Z" transform="translate(-216.099 -216.256)" fill="#ff887c" opacity="0.17"/>
              <path id="Path_33624" data-name="Path 33624" d="M247.81,223.827l-2.364.266a.86.86,0,0,1-.948-.756h0a.86.86,0,0,1,.757-.948l2.363-.266a.86.86,0,0,1,.948.756h0A.86.86,0,0,1,247.81,223.827Z" transform="translate(-228.598 -214.287)" fill="#ff887c" opacity="0.17"/>
              <path id="Path_33625" data-name="Path 33625" d="M235.634,246.44a.277.277,0,0,1-.165-.054,2.035,2.035,0,0,0-2.294,0,.28.28,0,0,1-.321-.458,2.581,2.581,0,0,1,2.945,0,.28.28,0,0,1-.165.506Z" transform="translate(-223.423 -224.566)" fill="#fb8e77"/>
            </g>
          </g>
        </g>
      </g>
    </g>
    <path id="Path_33511" data-name="Path 33511" d="M425.42,411.742H61.473a.885.885,0,0,1-.885-.885h0a.885.885,0,0,1,.885-.885H425.42a.885.885,0,0,1,.884.885h0A.885.885,0,0,1,425.42,411.742Z" transform="translate(-7952 -2418.831)" fill="#ececec"/>
  </g>
</svg>
