<svg xmlns="http://www.w3.org/2000/svg" width="9.67" height="13.185" viewBox="0 0 9.67 13.185">
  <path id="Path_30824" data-name="Path 30824" d="M168.258,25.846V22.319a1.78,1.78,0,0,0-1.779-1.779h-3.889a1.78,1.78,0,0,0-1.779,1.779v3.527a1.307,1.307,0,0,0-1.112,1.291v5.281a1.307,1.307,0,0,0,1.307,1.307h7.056a1.307,1.307,0,0,0,1.307-1.307V27.137a1.307,1.307,0,0,0-1.112-1.291Zm-5.668-4.025h3.889a.5.5,0,0,1,.5.5V25.83h-4.885V22.319A.5.5,0,0,1,162.591,21.821Zm1.945,9.386a1.282,1.282,0,1,1,1.282-1.282A1.282,1.282,0,0,1,164.535,31.207Z" transform="translate(-159.7 -20.54)" fill="#787878"/>
</svg>
