<svg xmlns="http://www.w3.org/2000/svg" width="16.001" height="13.577" viewBox="0 0 16.001 13.577">
  <g id="Group_18281" data-name="Group 18281" transform="translate(16065.331 10080)" opacity="0.5">
    <path id="Path_69313" data-name="Path 69313" d="M180.956,130.572l-2.223,2.264a.968.968,0,0,1-1.371-1.366l.009-.009c.285-.28.191-.509-.211-.509h-7.113a.97.97,0,0,1-.968-.972v.011a.969.969,0,0,1,.968-.972h7.113c.4,0,.5-.228.211-.51l-.009-.009a.968.968,0,0,1,1.371-1.366l2.22,2.233a.86.86,0,0,1,0,1.206Zm-4.168-5.388a.97.97,0,0,1-1.372,1.372,4.849,4.849,0,1,0,0,6.857.97.97,0,0,1,1.372,1.372,6.788,6.788,0,1,1,0-9.6Z" transform="translate(-16230.531 -10203.196)" fill="#fff" fill-rule="evenodd"/>
  </g>
</svg>
