<svg xmlns="http://www.w3.org/2000/svg" width="14.466" height="14.466" viewBox="0 0 14.466 14.466">
  <g id="Group_11384" data-name="Group 11384" transform="translate(-4482.696 553.966)">
    <path id="Path_30863" data-name="Path 30863" d="M257.048,131.25a3.3,3.3,0,1,0,3.3,3.3A3.3,3.3,0,0,0,257.048,131.25Z" transform="translate(4233.52 -681.918)" fill="#787878"/>
    <path id="Path_30864" data-name="Path 30864" d="M91.738,8.75a6.59,6.59,0,0,0-4.981,10.912l-.907.907-1.317-1.317-.666.666,1.317,1.317-1.315,1.316.664.664L85.848,21.9l1.317,1.317.666-.666-1.317-1.317.907-.907A6.593,6.593,0,1,0,91.738,8.75Zm0,12.248a5.653,5.653,0,1,1,5.653-5.653A5.66,5.66,0,0,1,91.738,21Z" transform="translate(4398.829 -562.716)" fill="#787878"/>
  </g>
</svg>
