<svg xmlns="http://www.w3.org/2000/svg" width="9.995" height="15.991" viewBox="0 0 9.995 15.991">
  <g id="Group_11383" data-name="Group 11383" transform="translate(-4757.771 957.625)">
    <path id="Path_30856" data-name="Path 30856" d="M188.46,118.46h9.995v9.995H188.46Z" transform="translate(4569.311 -1073.087)" fill="#787878"/>
    <path id="Path_30857" data-name="Path 30857" d="M188.458,464.4a.982.982,0,0,0,1,1h8a.982.982,0,0,0,1-1v-1.333h-9.995Zm4.331-.666h1.333v.666h-1.333Z" transform="translate(4569.313 -1407.038)" fill="#787878"/>
    <path id="Path_30858" data-name="Path 30858" d="M197.456,21.539h-8a1,1,0,0,0-1,1v1.333h9.995V22.538a1.025,1.025,0,0,0-1-1ZM194.791,23.2h-2.665v-.666h2.665Z" transform="translate(4569.31 -979.164)" fill="#787878"/>
  </g>
</svg>
