<svg xmlns="http://www.w3.org/2000/svg" width="16" height="16" viewBox="0 0 16 16">
  <path id="noun-online-course-2224377" d="M131.731,67.885h2.462V68.5h-7.385v-.615h2.462v-.615h2.462Zm-4.868-3.692H122.5v1.846h16V64.192ZM122.5,52.5V62.962h3.692a4.308,4.308,0,0,1,2.326-3.822,3.077,3.077,0,1,1,3.963,0,4.308,4.308,0,0,1,2.326,3.822H138.5V52.5Zm4.923,10.462h6.154a3.077,3.077,0,0,0-6.154,0Zm4.923-6.154a1.846,1.846,0,1,0-.541,1.305A1.847,1.847,0,0,0,132.346,56.808Z" transform="translate(-122.5 -52.5)" fill="#fff" opacity="0.5"/>
</svg>
