<svg xmlns="http://www.w3.org/2000/svg" width="16" height="13.333" viewBox="0 0 16 13.333">
  <g id="Group_13133" data-name="Group 13133" transform="translate(2223.531 5875)" opacity="0.5">
    <path id="Path_31388" data-name="Path 31388" d="M245.75,356.588a1.938,1.938,0,0,0-1.938-1.938h-3.875A1.938,1.938,0,0,0,238,356.588v1.938h7.75v-1.938h0Z" transform="translate(-2457.406 -6220.193)" fill="#fff"/>
    <path id="Path_31389" data-name="Path 31389" d="M297.875,207.278a1.938,1.938,0,1,1-1.938-1.938,1.938,1.938,0,0,1,1.938,1.938" transform="translate(-2511.469 -6076.287)" fill="#fff"/>
    <path id="Path_31390" data-name="Path 31390" d="M409.875,95.278a1.938,1.938,0,1,1-1.938-1.938,1.938,1.938,0,0,1,1.938,1.938" transform="translate(-2619.344 -5968.34)" fill="#fff"/>
    <path id="Path_31391" data-name="Path 31391" d="M185.875,95.278a1.938,1.938,0,1,1-1.938-1.938,1.938,1.938,0,0,1,1.938,1.938" transform="translate(-2403.594 -5968.34)" fill="#fff"/>
    <path id="Path_31392" data-name="Path 31392" d="M447.857,244.588a1.938,1.938,0,0,0-1.938-1.938h-2.583v2.855a3.237,3.237,0,0,1,1.278,1.02h3.243v-1.937h0Z" transform="translate(-2655.388 -6112.246)" fill="#fff"/>
    <path id="Path_31393" data-name="Path 31393" d="M126,244.588a1.938,1.938,0,0,1,1.938-1.938h2.583v2.855a3.237,3.237,0,0,0-1.278,1.02H126v-1.937h0Z" transform="translate(-2349.531 -6112.246)" fill="#fff"/>
  </g>
</svg>
