<svg xmlns="http://www.w3.org/2000/svg" width="16" height="15.302" viewBox="0 0 16 15.302">
  <g id="Group_16269" data-name="Group 16269" transform="translate(1176.515 8427)" opacity="0.5">
    <path id="Path_31823" data-name="Path 31823" d="M98.954,43.881H90.16v-.258a2.026,2.026,0,0,1,1.308-2.2,17.944,17.944,0,0,0,3.218-1.153,2.944,2.944,0,0,0,.258-.809A4.222,4.222,0,0,1,94.2,37.6c-.155-.017-.379-.241-.6-1.067-.293-1.05-.017-1.273.241-1.273h.052a2.9,2.9,0,0,1-.069-1.7,3.339,3.339,0,0,1,.86-1.532,4.817,4.817,0,0,1,.792-.671,2.748,2.748,0,0,1,.774-.4,3.2,3.2,0,0,1,.706-.138,1.875,1.875,0,0,1,.31-.017,2.732,2.732,0,0,1,1.463.4,2.216,2.216,0,0,1,.86.809s1.566.121.878,3.442c.206.069.361.361.121,1.239-.241.843-.465,1.067-.62,1.067a.248.248,0,0,1-.121-.034,4.1,4.1,0,0,1-.688,1.7,2.062,2.062,0,0,0,.31.912,1.428,1.428,0,0,0,.172.069,4.136,4.136,0,0,0-.688,3.476Zm2.323,1.773a1.817,1.817,0,0,1-1.377.361.127.127,0,0,1-.034-.241,1.569,1.569,0,0,0,.671-.757l-.034-.034a3.155,3.155,0,1,1,.774.671Zm1.239-4.251a.536.536,0,0,0,.533.533.534.534,0,0,0,0-1.067A.536.536,0,0,0,102.516,41.4Zm.121,3.442a2.8,2.8,0,0,0,.379.017.953.953,0,0,0,.688-.31.218.218,0,0,0,.069-.121c.017-.086-.052-.138-.121-.1-.052.017-.1.052-.155.069a1.061,1.061,0,0,1-.189.052c-.086.017-.138-.034-.155-.121a.647.647,0,0,1-.017-.189,2.925,2.925,0,0,1,.069-.379l.206-1.136a1.9,1.9,0,0,0,.034-.31c0-.121-.069-.189-.206-.189h-1a.294.294,0,0,0-.121.017.151.151,0,0,0-.121.1.142.142,0,0,0,.086.138c.052.017.121.017.172.034.138.017.172.069.172.206v.069c-.052.327-.121.654-.172.981-.034.189-.069.379-.086.568a.621.621,0,0,0,.465.6Z" transform="translate(-1266.675 -8457.803)" fill="#fff"/>
  </g>
</svg>
