<svg xmlns="http://www.w3.org/2000/svg" width="12.477" height="11.953" viewBox="0 0 12.477 11.953">
  <path id="Path_30820" data-name="Path 30820" d="M128.487,73.8c-1.438,0-2.876-.012-4.311.006a1.728,1.728,0,0,1-1.339-2.993,7.547,7.547,0,0,1,3.209-1.906c.926-.324.974-.464.386-1.213a3.952,3.952,0,0,1-.761-3.715,2.868,2.868,0,0,1,3.152-2.1,2.967,2.967,0,0,1,2.676,2.9,4.113,4.113,0,0,1-1.016,3.038c-.455.548-.363.752.282,1.037a29,29,0,0,1,2.715,1.354,3.29,3.29,0,0,1,.92.923,1.56,1.56,0,0,1,.111,1.8,1.635,1.635,0,0,1-1.528.872c-1.5-.006-3,0-4.494,0Z" transform="translate(-122.266 -61.852)" fill="#787878"/>
</svg>
