<svg xmlns="http://www.w3.org/2000/svg" width="38" height="38" viewBox="0 0 38 38">
  <g id="Group_20812" data-name="Group 20812" transform="translate(-266 -23)">
    <circle id="Ellipse_11" data-name="Ellipse 11" cx="19" cy="19" r="19" transform="translate(266 23)" fill="#f3f3f3" opacity="0.5"/>
    <g id="Group_17046" data-name="Group 17046" transform="translate(2401.168 5764.08)">
      <path id="Path_31394" data-name="Path 31394" d="M251.681,473.829a2.619,2.619,0,0,0,2.6-2.621.348.348,0,0,0-.325-.4l-10.433-.033a4.364,4.364,0,0,1-.722,3.028c2.441.01,6.837.02,8.876.024Z" transform="translate(-2363.333 -6185.989)" fill="#707070"/>
      <path id="Path_31395" data-name="Path 31395" d="M145.183,81.23a2.96,2.96,0,0,1-2.588-2.569H131.584a.321.321,0,0,0-.331.31V93.659a2.155,2.155,0,0,0,2.154,2.152h.187c1.029,0,1.662-.286,1.853-1.748,0-.013.067-.921.039-1.466a.35.35,0,0,1,.354-.357l9.369.03ZM135,88.728l-1.479,1.991c-.264.356-.839-.039-.574-.4l1.078-1.452-1,0a.342.342,0,0,1-.275-.555l1.476-1.748a.362.362,0,0,1,.5-.049.332.332,0,0,1,.051.479l-1.006,1.192.943,0a.342.342,0,0,1,.288.538Zm-.785-3.978a1.852,1.852,0,0,1-1.857-1.843c0-.917,1.331-2.349,1.6-2.627a.366.366,0,0,1,.518,0c.267.278,1.6,1.71,1.6,2.627A1.852,1.852,0,0,1,134.216,84.75Zm7.942,5.556h-3.8a.34.34,0,1,1,0-.681h3.8a.34.34,0,1,1,0,.681Zm1.672-1.64h-5.473a.34.34,0,1,1,0-.681h5.473a.34.34,0,1,1,0,.681Zm-5.451-5.438a.347.347,0,0,1,.353-.34h3.578a.34.34,0,1,1,0,.68h-3.578A.347.347,0,0,1,138.379,83.228Zm5.5-1.194h-5.152a.34.34,0,1,1,0-.68h5.152a.34.34,0,1,1,0,.68Z" transform="translate(-2255.422 -5808.01)" fill="#707070"/>
      <path id="Path_31396" data-name="Path 31396" d="M179.03,145.636a1.152,1.152,0,1,0,2.3,0,4.714,4.714,0,0,0-1.151-1.962A4.714,4.714,0,0,0,179.03,145.636Z" transform="translate(-2301.387 -5870.773)" fill="#707070"/>
      <path id="Path_31397" data-name="Path 31397" d="M450.775,8.75a2.323,2.323,0,1,0,2.28,2.323A2.3,2.3,0,0,0,450.775,8.75Zm1.421,1.687-1.612,1.754a.356.356,0,0,1-.466.047l-.711-.516a.356.356,0,0,1-.08-.5.352.352,0,0,1,.493-.08l.458.332,1.4-1.523a.352.352,0,0,1,.5-.02.356.356,0,0,1,.02.5Z" transform="translate(-2561.224 -5740.75)" fill="#707070"/>
    </g>
  </g>
</svg>
