<svg xmlns="http://www.w3.org/2000/svg" width="38" height="38" viewBox="0 0 38 38">
  <g id="Group_20799" data-name="Group 20799" transform="translate(-266 -23)">
    <circle id="Ellipse_11" data-name="Ellipse 11" cx="19" cy="19" r="19" transform="translate(266 23)" fill="#f3f3f3" opacity="0.5"/>
    <path id="noun-registration-2013934" d="M18.737,200H1.249A1.253,1.253,0,0,0,0,201.249v10.826a1.253,1.253,0,0,0,1.249,1.249H18.737a1.253,1.253,0,0,0,1.249-1.249V201.249A1.253,1.253,0,0,0,18.737,200ZM3.523,202.273a2.091,2.091,0,1,1-.608,1.474,2.091,2.091,0,0,1,.608-1.474Zm4.805,8.553H1.666v-.416a3.331,3.331,0,0,1,6.662,0Zm8.544-.833H10.614a.625.625,0,1,1,0-1.249h6.258a.625.625,0,0,1,0,1.249Zm0-2.5H10.614a.625.625,0,1,1,0-1.249h6.258a.625.625,0,1,1,0,1.249Zm0-2.5H10.614a.625.625,0,1,1,0-1.249h6.258a.625.625,0,1,1,0,1.249Z" transform="translate(275.007 -164.662)" fill="#707070"/>
  </g>
</svg>
