<svg xmlns="http://www.w3.org/2000/svg" xmlns:xlink="http://www.w3.org/1999/xlink" width="531.506" height="354.098" viewBox="0 0 531.506 354.098">
  <defs>
    <linearGradient id="linear-gradient" x1="0.5" x2="0.5" y2="1" gradientUnits="objectBoundingBox">
      <stop offset="0" stop-color="#ffcc06"/>
      <stop offset="1" stop-color="#ffaa27"/>
    </linearGradient>
  </defs>
  <g id="Group_5350" data-name="Group 5350" transform="translate(-42.465 -17.667)">
    <line id="Line_1" data-name="Line 1" x2="488.27" transform="translate(67.149 371.265)" fill="none" stroke="#c3dbe6" stroke-width="1"/>
    <g id="Group_5276" data-name="Group 5276" transform="translate(161.673 63.379)">
      <g id="Group_5272" data-name="Group 5272">
        <rect id="Rectangle_196" data-name="Rectangle 196" width="299.222" height="184.691" rx="18.679" fill="#c3dbe6"/>
        <path id="Path_25550" data-name="Path 25550" d="M206.6,256.438a12.675,12.675,0,0,1-12.675-12.675V90.34a12.126,12.126,0,0,1,12.126-12.126h268.5A12.126,12.126,0,0,1,486.683,90.34V243.764a12.675,12.675,0,0,1-12.675,12.675Z" transform="translate(-190.694 -74.98)" fill="#fff"/>
        <path id="Path_25551" data-name="Path 25551" d="M205.272,78.214H474.408A12.126,12.126,0,0,1,486.533,90.34V100.1H193.146V90.34A12.126,12.126,0,0,1,205.272,78.214Z" transform="translate(-190.545 -74.98)" fill="#a2c5d2"/>
        <g id="Group_5271" data-name="Group 5271" transform="translate(16.299 11.381)">
          <circle id="Ellipse_8" data-name="Ellipse 8" cx="2.797" cy="2.797" r="2.797" fill="#dcecf0"/>
          <circle id="Ellipse_9" data-name="Ellipse 9" cx="2.797" cy="2.797" r="2.797" transform="translate(16.664 0)" fill="#dcecf0"/>
          <path id="Path_25552" data-name="Path 25552" d="M256.911,91.09a2.8,2.8,0,1,1-2.8-2.8A2.8,2.8,0,0,1,256.911,91.09Z" transform="translate(-217.99 -88.293)" fill="#dcecf0"/>
        </g>
      </g>
      <g id="Group_5275" data-name="Group 5275" transform="translate(16.299 30.52)">
        <line id="Line_2" data-name="Line 2" x2="166.933" transform="translate(2.063 121.605)" fill="none" stroke="#a2c5d2" stroke-linecap="round" stroke-linejoin="round" stroke-width="3"/>
        <line id="Line_3" data-name="Line 3" x2="130.4" transform="translate(2.063 131.232)" fill="none" stroke="#a2c5d2" stroke-linecap="round" stroke-linejoin="round" stroke-width="3"/>
        <line id="Line_4" data-name="Line 4" x2="81.196" transform="translate(2.063 140.859)" fill="none" stroke="#a2c5d2" stroke-linecap="round" stroke-linejoin="round" stroke-width="3"/>
        <g id="Group_5273" data-name="Group 5273" transform="translate(192.469 121.605)">
          <line id="Line_5" data-name="Line 5" x2="15.432" fill="none" stroke="#a2c5d2" stroke-linecap="round" stroke-linejoin="round" stroke-width="3"/>
          <line id="Line_6" data-name="Line 6" x2="15.432" transform="translate(0 9.627)" fill="none" stroke="#a2c5d2" stroke-linecap="round" stroke-linejoin="round" stroke-width="3"/>
          <line id="Line_7" data-name="Line 7" x2="15.432" transform="translate(0 19.254)" fill="none" stroke="#a2c5d2" stroke-linecap="round" stroke-linejoin="round" stroke-width="3"/>
          <line id="Line_8" data-name="Line 8" x2="15.432" transform="translate(28.33)" fill="none" stroke="#a2c5d2" stroke-linecap="round" stroke-linejoin="round" stroke-width="3"/>
          <line id="Line_9" data-name="Line 9" x2="15.432" transform="translate(28.33 9.627)" fill="none" stroke="#a2c5d2" stroke-linecap="round" stroke-linejoin="round" stroke-width="3"/>
          <line id="Line_10" data-name="Line 10" x2="15.432" transform="translate(28.33 19.254)" fill="none" stroke="#a2c5d2" stroke-linecap="round" stroke-linejoin="round" stroke-width="3"/>
          <line id="Line_11" data-name="Line 11" x2="15.432" transform="translate(56.661)" fill="none" stroke="#a2c5d2" stroke-linecap="round" stroke-linejoin="round" stroke-width="3"/>
          <line id="Line_12" data-name="Line 12" x2="15.432" transform="translate(56.661 9.627)" fill="none" stroke="#a2c5d2" stroke-linecap="round" stroke-linejoin="round" stroke-width="3"/>
          <line id="Line_13" data-name="Line 13" x2="15.432" transform="translate(56.661 19.254)" fill="none" stroke="#a2c5d2" stroke-linecap="round" stroke-linejoin="round" stroke-width="3"/>
        </g>
        <g id="Group_5274" data-name="Group 5274">
          <line id="Line_14" data-name="Line 14" y2="37.059" transform="translate(263.434)" fill="none" stroke="#00aeee" stroke-width="0.79"/>
          <line id="Line_15" data-name="Line 15" y2="16.867" transform="translate(263.434 11.498)" fill="none" stroke="#00aeee" stroke-width="6.322"/>
          <line id="Line_16" data-name="Line 16" y2="37.059" transform="translate(255.202 6.271)" fill="none" stroke="#00aeee" stroke-width="0.79"/>
          <line id="Line_17" data-name="Line 17" y2="11.118" transform="translate(255.202 23.518)" fill="none" stroke="#00aeee" stroke-width="6.322"/>
          <line id="Line_18" data-name="Line 18" y2="37.059" transform="translate(246.969 9.527)" fill="none" stroke="#00aeee" stroke-width="0.79"/>
          <line id="Line_19" data-name="Line 19" y2="17.389" transform="translate(246.969 28.413)" fill="none" stroke="#00aeee" stroke-width="6.322"/>
          <line id="Line_20" data-name="Line 20" y2="37.059" transform="translate(238.737 7.697)" fill="none" stroke="#00aeee" stroke-width="0.79"/>
          <line id="Line_21" data-name="Line 21" y2="22.948" transform="translate(238.737 13.113)" fill="none" stroke="#00aeee" stroke-width="6.322"/>
          <line id="Line_22" data-name="Line 22" y2="27.794" transform="translate(230.505 20.378)" fill="none" stroke="#00aeee" stroke-width="0.79"/>
          <line id="Line_23" data-name="Line 23" y2="12.258" transform="translate(230.505 27.552)" fill="none" stroke="#00aeee" stroke-width="6.322"/>
          <line id="Line_24" data-name="Line 24" y2="33.068" transform="translate(222.273 24.368)" fill="none" stroke="#00aeee" stroke-width="0.79"/>
          <line id="Line_25" data-name="Line 25" y2="19.67" transform="translate(222.273 33.063)" fill="none" stroke="#00aeee" stroke-width="6.322"/>
          <line id="Line_26" data-name="Line 26" y2="28.792" transform="translate(214.04 18.525)" fill="none" stroke="#00aeee" stroke-width="0.79"/>
          <line id="Line_27" data-name="Line 27" y2="16.344" transform="translate(214.04 25.271)" fill="none" stroke="#00aeee" stroke-width="6.322"/>
          <line id="Line_28" data-name="Line 28" y2="34.493" transform="translate(205.808 6.979)" fill="none" stroke="#00aeee" stroke-width="0.79"/>
          <line id="Line_29" data-name="Line 29" y2="21.665" transform="translate(205.808 13.678)" fill="none" stroke="#00aeee" stroke-width="6.322"/>
          <line id="Line_30" data-name="Line 30" y2="27.366" transform="translate(197.576 23.293)" fill="none" stroke="#00aeee" stroke-width="0.79"/>
          <line id="Line_31" data-name="Line 31" y2="13.256" transform="translate(197.576 29.849)" fill="none" stroke="#00aeee" stroke-width="6.322"/>
          <line id="Line_32" data-name="Line 32" y2="27.509" transform="translate(189.343 34.493)" fill="none" stroke="#00aeee" stroke-width="0.79"/>
          <line id="Line_33" data-name="Line 33" y2="10.12" transform="translate(189.343 43.188)" fill="none" stroke="#00aeee" stroke-width="6.322"/>
          <line id="Line_34" data-name="Line 34" y2="28.079" transform="translate(181.111 27.366)" fill="none" stroke="#00aeee" stroke-width="0.79"/>
          <line id="Line_35" data-name="Line 35" y2="10.595" transform="translate(181.111 36.061)" fill="none" stroke="#00aeee" stroke-width="6.322"/>
          <line id="Line_36" data-name="Line 36" y2="34.066" transform="translate(172.879 34.493)" fill="none" stroke="#00aeee" stroke-width="0.79"/>
          <line id="Line_37" data-name="Line 37" y2="19.67" transform="translate(172.879 43.188)" fill="none" stroke="#00aeee" stroke-width="6.322"/>
          <line id="Line_38" data-name="Line 38" y2="23.589" transform="translate(164.646 34.493)" fill="none" stroke="#00aeee" stroke-width="0.79"/>
          <line id="Line_39" data-name="Line 39" y2="9.597" transform="translate(164.646 43.188)" fill="none" stroke="#00aeee" stroke-width="6.322"/>
          <line id="Line_40" data-name="Line 40" y2="24.658" transform="translate(156.414 30.787)" fill="none" stroke="#00aeee" stroke-width="0.79"/>
          <line id="Line_41" data-name="Line 41" y2="7.174" transform="translate(156.414 39.482)" fill="none" stroke="#00aeee" stroke-width="6.322"/>
          <line id="Line_42" data-name="Line 42" y2="47.179" transform="translate(148.182 34.493)" fill="none" stroke="#00aeee" stroke-width="0.79"/>
          <line id="Line_43" data-name="Line 43" y2="33.353" transform="translate(148.182 43.188)" fill="none" stroke="#00aeee" stroke-width="6.322"/>
          <line id="Line_44" data-name="Line 44" y2="37.059" transform="translate(139.949 47.749)" fill="none" stroke="#00aeee" stroke-width="0.79"/>
          <line id="Line_45" data-name="Line 45" y2="19.67" transform="translate(139.949 56.443)" fill="none" stroke="#00aeee" stroke-width="6.322"/>
          <line id="Line_46" data-name="Line 46" y2="42.19" transform="translate(131.717 49.317)" fill="none" stroke="#00aeee" stroke-width="0.79"/>
          <line id="Line_47" data-name="Line 47" y2="25.514" transform="translate(131.717 57.299)" fill="none" stroke="#00aeee" stroke-width="6.322"/>
          <line id="Line_48" data-name="Line 48" y2="34.208" transform="translate(123.485 73.549)" fill="none" stroke="#00aeee" stroke-width="0.79"/>
          <line id="Line_49" data-name="Line 49" y2="19.67" transform="translate(123.485 79.392)" fill="none" stroke="#00aeee" stroke-width="6.322"/>
          <line id="Line_50" data-name="Line 50" y2="37.059" transform="translate(115.252 40.586)" fill="none" stroke="#00aeee" stroke-width="0.79"/>
          <line id="Line_51" data-name="Line 51" y2="24.231" transform="translate(115.252 49.281)" fill="none" stroke="#00aeee" stroke-width="6.322"/>
          <line id="Line_52" data-name="Line 52" y2="37.059" transform="translate(107.02 43.615)" fill="none" stroke="#00aeee" stroke-width="0.79"/>
          <line id="Line_53" data-name="Line 53" y2="14.396" transform="translate(107.02 57.584)" fill="none" stroke="#00aeee" stroke-width="6.322"/>
          <line id="Line_54" data-name="Line 54" y2="37.059" transform="translate(98.788 57.584)" fill="none" stroke="#00aeee" stroke-width="0.79"/>
          <line id="Line_55" data-name="Line 55" y2="12.543" transform="translate(98.788 73.405)" fill="none" stroke="#00aeee" stroke-width="6.322"/>
          <line id="Line_56" data-name="Line 56" y2="37.059" transform="translate(90.555 66.278)" fill="none" stroke="#00aeee" stroke-width="0.79"/>
          <line id="Line_57" data-name="Line 57" y2="9.835" transform="translate(90.555 84.808)" fill="none" stroke="#00aeee" stroke-width="6.322"/>
          <line id="Line_58" data-name="Line 58" y2="37.059" transform="translate(82.323 61.147)" fill="none" stroke="#00aeee" stroke-width="0.79"/>
          <line id="Line_59" data-name="Line 59" y2="11.973" transform="translate(82.323 77.538)" fill="none" stroke="#00aeee" stroke-width="6.322"/>
          <line id="Line_60" data-name="Line 60" y2="37.059" transform="translate(74.091 57.584)" fill="none" stroke="#00aeee" stroke-width="0.79"/>
          <line id="Line_61" data-name="Line 61" y2="14.966" transform="translate(74.091 70.982)" fill="none" stroke="#00aeee" stroke-width="6.322"/>
          <line id="Line_62" data-name="Line 62" y2="37.059" transform="translate(65.859 66.717)" fill="none" stroke="#00aeee" stroke-width="0.79"/>
          <line id="Line_63" data-name="Line 63" y2="23.09" transform="translate(65.859 71.99)" fill="none" stroke="#00aeee" stroke-width="6.322"/>
          <line id="Line_64" data-name="Line 64" y2="37.059" transform="translate(57.626 51.301)" fill="none" stroke="#00aeee" stroke-width="0.79"/>
          <line id="Line_65" data-name="Line 65" y2="22.378" transform="translate(57.626 59.996)" fill="none" stroke="#00aeee" stroke-width="6.322"/>
          <line id="Line_66" data-name="Line 66" y2="37.059" transform="translate(49.394 36.056)" fill="none" stroke="#00aeee" stroke-width="0.79"/>
          <line id="Line_67" data-name="Line 67" y2="22.663" transform="translate(49.394 44.751)" fill="none" stroke="#00aeee" stroke-width="6.322"/>
          <line id="Line_68" data-name="Line 68" y2="37.059" transform="translate(41.162 42.328)" fill="none" stroke="#00aeee" stroke-width="0.79"/>
          <line id="Line_69" data-name="Line 69" y2="22.093" transform="translate(41.162 48.599)" fill="none" stroke="#00aeee" stroke-width="6.322"/>
          <line id="Line_70" data-name="Line 70" y2="37.059" transform="translate(32.929 34.636)" fill="none" stroke="#00aeee" stroke-width="0.79"/>
          <line id="Line_71" data-name="Line 71" y2="6.129" transform="translate(32.929 43.33)" fill="none" stroke="#00aeee" stroke-width="6.322"/>
          <line id="Line_72" data-name="Line 72" y2="37.059" transform="translate(24.697 26.226)" fill="none" stroke="#00aeee" stroke-width="0.79"/>
          <line id="Line_73" data-name="Line 73" y2="9.835" transform="translate(24.697 34.921)" fill="none" stroke="#00aeee" stroke-width="6.322"/>
          <line id="Line_74" data-name="Line 74" y2="43.972" transform="translate(16.465 44.114)" fill="none" stroke="#00aeee" stroke-width="0.79"/>
          <line id="Line_75" data-name="Line 75" y2="30.716" transform="translate(16.465 48.675)" fill="none" stroke="#00aeee" stroke-width="6.322"/>
          <line id="Line_76" data-name="Line 76" y2="37.059" transform="translate(8.232 69.271)" fill="none" stroke="#00aeee" stroke-width="0.79"/>
          <line id="Line_77" data-name="Line 77" y2="16.677" transform="translate(8.232 59.869)" fill="none" stroke="#00aeee" stroke-width="6.322"/>
          <line id="Line_78" data-name="Line 78" y2="37.059" transform="translate(0 66.711)" fill="none" stroke="#00aeee" stroke-width="0.79"/>
          <line id="Line_79" data-name="Line 79" y2="21.665" transform="translate(0 73.41)" fill="none" stroke="#00aeee" stroke-width="6.322"/>
        </g>
      </g>
    </g>
    <g id="Group_5277" data-name="Group 5277" transform="translate(499.051 178.508)">
      <path id="Path_25553" data-name="Path 25553" d="M638.273,219.362l-10.938,16.815H607.271a20.746,20.746,0,0,1,31-16.815Z" transform="translate(-607.271 -216.63)" fill="#00aeee" opacity="0.2"/>
      <path id="Path_25554" data-name="Path 25554" d="M654.055,238.341a20.582,20.582,0,0,1-3,10.744l-16.1-11.067,10.646-16.378A20.7,20.7,0,0,1,654.055,238.341Z" transform="translate(-612.577 -217.59)" fill="#00aeee" opacity="0.5"/>
      <path id="Path_25555" data-name="Path 25555" d="M644.368,255.338a20.752,20.752,0,0,1-37.1-11.528h20.347Z" transform="translate(-607.271 -221.838)" fill="#00aeee"/>
    </g>
    <path id="Path_25556" data-name="Path 25556" d="M645.207,412.316s15-4.22,14-13.711-12.414-11.4-5.791-19.806,8.449-12.756,3.825-17.195,3.83-7.481,3.472-15.69-8.559-9.883-13.7-6.234-1.508,10.034-3.561,15.052-9.478,6.689-10.741,12.922,5.445,11.42,5.529,15.964-8.552,9.578-8.546,16.267S642.372,412.232,645.207,412.316Z" transform="translate(-112.516 -61.349)" fill="#ffaa27"/>
    <g id="Group_5278" data-name="Group 5278" transform="translate(531.065 285.781)">
      <path id="Path_25557" data-name="Path 25557" d="M649.871,417.29a142.922,142.922,0,0,1-1.6-17.188,152.255,152.255,0,0,1,.378-17.307,117.213,117.213,0,0,1,2.69-17.11,87.491,87.491,0,0,1,5.749-16.355,87.717,87.717,0,0,0-6.2,16.239,117.9,117.9,0,0,0-3.165,17.136,153.54,153.54,0,0,0-.847,17.428,144.274,144.274,0,0,0,1.158,17.459Z" transform="translate(-646.874 -349.33)" fill="#022643"/>
    </g>
    <path id="Path_25558" data-name="Path 25558" d="M643.841,433.949s-9.861-6.778-7.173-13.958,5.055-5.617,4.877-15.554,3.41-15.69,14.225-16.769,15.228-4.991,20.714-6.712,9.288-.756,10.74,2.805.016,9.1-7.007,10.091-10.744,3.094-11.434,10.383-4.082,9.121-10.51,10.348S659.536,431.959,643.841,433.949Z" transform="translate(-113.764 -69.449)" fill="#ffcc06"/>
    <g id="Group_5280" data-name="Group 5280" transform="translate(529.809 317.107)">
      <path id="Path_25559" data-name="Path 25559" d="M645.319,434.032a55.211,55.211,0,0,1,9.2-27.862,48.114,48.114,0,0,1,22.7-18.09,47.7,47.7,0,0,0-22.006,18.549,53.963,53.963,0,0,0-8.234,27.468Z" transform="translate(-645.319 -388.08)" fill="#022643"/>
    </g>
    <path id="Path_25560" data-name="Path 25560" d="M630.92,421.963s-11.494-1.565-13.41-8.274,2.671-9.172-3.819-11.627-11.243-1.592-12.54-8.046-3.328-10.926-8.424-13.639-.818-10.028,4.643-7.758,7.226,6.584,14.952,5.926c8.714-.743,13.76,1.446,12.914,8.251-.659,5.3.639,6.014,6.332,8.366,9.7,4.011,7.838,14.013,4.732,20.663S630.92,421.963,630.92,421.963Z" transform="translate(-104.996 -67.928)" fill="#ffcc06"/>
    <g id="Group_5282" data-name="Group 5282" transform="translate(492.146 309.549)">
      <path id="Path_25561" data-name="Path 25561" d="M630.283,421.354a29.746,29.746,0,0,0-2.375-13.452,47.147,47.147,0,0,0-7.251-11.87,64.309,64.309,0,0,0-10.059-9.754,72.577,72.577,0,0,0-11.869-7.546,72.818,72.818,0,0,1,12.1,7.248,64.915,64.915,0,0,1,10.4,9.57,48.077,48.077,0,0,1,7.71,11.912,31.032,31.032,0,0,1,2.836,14Z" transform="translate(-598.729 -378.731)" fill="#022643"/>
    </g>
    <g id="Group_5284" data-name="Group 5284" transform="translate(515.284 350.189)">
      <path id="Path_25562" data-name="Path 25562" d="M654.318,429H629.356a34.368,34.368,0,0,0,3.683,21.076h17.6A34.368,34.368,0,0,0,654.318,429Z" transform="translate(-627.668 -429.004)" fill="#304a5f"/>
      <path id="Path_25563" data-name="Path 25563" d="M655.69,433.445c-.1-2.76-.35-4.441-.35-4.441H627.7s-.249,1.681-.35,4.441Z" transform="translate(-627.352 -429.004)" fill="#2c4c6a"/>
    </g>
    <path id="Path_25564" data-name="Path 25564" d="M90.1,423.274c.043-3.972,7.7-15.136,6.531-19.589-2.349-8.927-10.831-6.272-10-16.269.475-5.745-3.158-11.073-14.1-10.307-11.058.774-13.47-3.486-19.118-4.822s-9.4-.09-10.609,3.6.642,9.158,7.784,9.652,9.761,1.763,10.982,9.052,7.374,3.009,12.732,6.871c4.345,3.133-2.411,6.091,1.92,11.722C78.86,416.612,87.988,417.377,90.1,423.274Z" transform="translate(0 -67.847)" fill="#ffcc06"/>
    <g id="Group_5286" data-name="Group 5286" transform="translate(54.83 310.005)">
      <path id="Path_25565" data-name="Path 25565" d="M91.566,423.429a54.492,54.492,0,0,0-10.3-27.064A48.145,48.145,0,0,0,57.761,379.3a48.549,48.549,0,0,1,24.146,16.581,55.693,55.693,0,0,1,11.257,27.375Z" transform="translate(-57.761 -379.295)" fill="#022643"/>
    </g>
    <path id="Path_25566" data-name="Path 25566" d="M107.526,415.377s-16.113-2.346-16.363-12.318,8.775-13.221.774-21.04S84.005,369.67,88.2,364.443s-4.982-7.235-5.721-15.793,7.534-11.4,13.355-8.313,2.919,10.2,5.727,15.119,10.727,5.652,12.879,11.941-.314,11.62.213,16.34,6.375,9.724,7.273,16.659S110.453,414.905,107.526,415.377Z" transform="translate(-7.658 -61.594)" fill="#ffaa27"/>
    <g id="Group_5288" data-name="Group 5288" transform="translate(82.148 287.382)">
      <path id="Path_25567" data-name="Path 25567" d="M108.4,420.777a149.545,149.545,0,0,0-.711-18.05,159.276,159.276,0,0,0-2.776-17.892,122.577,122.577,0,0,0-5.145-17.367,91.513,91.513,0,0,0-8.21-16.158,91.682,91.682,0,0,1,8.583,16.009,123.318,123.318,0,0,1,5.555,17.336,160.428,160.428,0,0,1,3.191,17.943A150.545,150.545,0,0,1,110,420.831Z" transform="translate(-91.554 -351.31)" fill="#022643"/>
    </g>
    <path id="Path_25568" data-name="Path 25568" d="M132.79,413.224c1.61-7.319-4.171-5.356,2.625-8.418s8.744-3.245,9.707-10.25,2.844-11.934,8.128-15.18.213-10.8-5.491-8.01-7.311,7.537-15.638,7.343c-9.391-.22-14.656,2.461-13.3,9.7,1.057,5.637-.815,10.453-6.763,13.352-10.139,4.943.456,14.131,3.561,24.191C120.99,412.13,131.18,420.543,132.79,413.224Z" transform="translate(-12.512 -67.654)" fill="#ffcc06"/>
    <g id="Group_5290" data-name="Group 5290" transform="translate(103.04 308.905)">
      <path id="Path_25569" data-name="Path 25569" d="M117.571,425.932a33.322,33.322,0,0,1,2.113-15.2,51.615,51.615,0,0,1,7.478-13.281,69.656,69.656,0,0,1,10.52-10.948,78.248,78.248,0,0,1,12.487-8.572,77.981,77.981,0,0,0-12.225,8.876,69.081,69.081,0,0,0-10.138,11.123,50.649,50.649,0,0,0-6.988,13.206,31.947,31.947,0,0,0-1.656,14.579Z" transform="translate(-117.398 -377.934)" fill="#022643"/>
    </g>
    <g id="Group_5292" data-name="Group 5292" transform="translate(83.965 350.189)">
      <path id="Path_25570" data-name="Path 25570" d="M95.8,429h24.962a34.369,34.369,0,0,1-3.683,21.076h-17.6A34.369,34.369,0,0,1,95.8,429Z" transform="translate(-94.117 -429.004)" fill="#202c3a"/>
      <path id="Path_25571" data-name="Path 25571" d="M93.8,433.445c.1-2.76.35-4.441.35-4.441h27.638s.249,1.681.35,4.441Z" transform="translate(-93.801 -429.004)" fill="#1b3e67"/>
    </g>
    <g id="Group_5294" data-name="Group 5294" transform="translate(432.599 150.28)">
      <rect id="Rectangle_197" data-name="Rectangle 197" width="52.425" height="37.663" rx="3.403" transform="translate(0 0)" fill="#fff" stroke="#c3dbe6" stroke-width="2.731"/>
      <path id="Path_25572" data-name="Path 25572" d="M529.788,216.861c3.732,0,3.732-5.1,7.465-5.1s3.732-9,7.466-9,2.7,5.867,6.432,5.867,4.766-15.369,8.5-15.369S563.383,200,567.116,200s3.733-6.746,7.466-6.746" transform="translate(-525.973 -183.923)" fill="none" stroke="#c3dbe6" stroke-linecap="round" stroke-linejoin="round" stroke-width="2"/>
    </g>
    <g id="Group_5295" data-name="Group 5295" transform="translate(473.763 89.625)">
      <path id="Path_25573" data-name="Path 25573" d="M609.79,136.363h-3.172a1.316,1.316,0,0,1-1.255-.9,12.342,12.342,0,0,0-.75-1.812,1.315,1.315,0,0,1,.25-1.525l2.243-2.243a1.331,1.331,0,0,0,0-1.883l-2.257-2.258a1.332,1.332,0,0,0-1.884,0l-2.243,2.243a1.314,1.314,0,0,1-1.525.251,12.4,12.4,0,0,0-1.813-.751,1.315,1.315,0,0,1-.9-1.255v-3.172a1.331,1.331,0,0,0-1.331-1.331h-3.192a1.331,1.331,0,0,0-1.331,1.331v3.172a1.315,1.315,0,0,1-.9,1.256,12.3,12.3,0,0,0-1.813.75,1.314,1.314,0,0,1-1.526-.25l-2.243-2.243a1.33,1.33,0,0,0-1.883,0L580.006,128a1.333,1.333,0,0,0,0,1.884l2.243,2.243a1.315,1.315,0,0,1,.25,1.525,12.346,12.346,0,0,0-.751,1.812,1.315,1.315,0,0,1-1.255.9H577.32a1.331,1.331,0,0,0-1.331,1.331v3.192a1.332,1.332,0,0,0,1.331,1.331h3.173a1.314,1.314,0,0,1,1.255.9,12.347,12.347,0,0,0,.751,1.812,1.315,1.315,0,0,1-.25,1.525l-2.243,2.243a1.333,1.333,0,0,0,0,1.884l2.257,2.257a1.332,1.332,0,0,0,1.883,0l2.243-2.244a1.315,1.315,0,0,1,1.526-.25,12.307,12.307,0,0,0,1.813.75,1.315,1.315,0,0,1,.9,1.256v3.172a1.331,1.331,0,0,0,1.331,1.331h3.192a1.331,1.331,0,0,0,1.331-1.331v-3.172a1.315,1.315,0,0,1,.9-1.255,12.352,12.352,0,0,0,1.812-.751,1.315,1.315,0,0,1,1.526.251l2.243,2.243a1.332,1.332,0,0,0,1.884,0l2.257-2.258a1.331,1.331,0,0,0,0-1.883l-2.243-2.243a1.315,1.315,0,0,1-.25-1.525,12.342,12.342,0,0,0,.75-1.812,1.315,1.315,0,0,1,1.256-.9h3.171a1.331,1.331,0,0,0,1.331-1.331v-3.192A1.331,1.331,0,0,0,609.79,136.363Zm-16.234,9.556a6.628,6.628,0,1,1,6.628-6.628A6.625,6.625,0,0,1,593.555,145.919Z" transform="translate(-575.989 -109.564)" fill="#c3dbe6"/>
      <path id="Path_25574" data-name="Path 25574" d="M640.73,155.488h-2a.828.828,0,0,1-.791-.567,7.677,7.677,0,0,0-.473-1.141.829.829,0,0,1,.158-.96l1.413-1.412a.839.839,0,0,0,0-1.186l-1.421-1.421a.839.839,0,0,0-1.186,0l-1.412,1.412a.827.827,0,0,1-.96.158,7.794,7.794,0,0,0-1.142-.473.828.828,0,0,1-.567-.791v-2a.839.839,0,0,0-.838-.839H629.5a.839.839,0,0,0-.838.839v2a.828.828,0,0,1-.567.791,7.858,7.858,0,0,0-1.142.473.827.827,0,0,1-.96-.158l-1.412-1.412a.839.839,0,0,0-1.186,0l-1.421,1.421a.838.838,0,0,0,0,1.185l1.413,1.413a.828.828,0,0,1,.157.96,7.813,7.813,0,0,0-.472,1.141.828.828,0,0,1-.791.568h-2a.838.838,0,0,0-.838.838v2.01a.838.838,0,0,0,.838.838h2a.828.828,0,0,1,.791.567,7.784,7.784,0,0,0,.472,1.141.828.828,0,0,1-.157.96l-1.413,1.413a.838.838,0,0,0,0,1.185l1.421,1.421a.839.839,0,0,0,1.186,0L626,164.45a.827.827,0,0,1,.96-.158,7.861,7.861,0,0,0,1.142.473.828.828,0,0,1,.567.791v2a.838.838,0,0,0,.838.838h2.01a.838.838,0,0,0,.838-.838v-2a.828.828,0,0,1,.567-.791,7.843,7.843,0,0,0,1.141-.473.828.828,0,0,1,.961.158l1.412,1.412a.838.838,0,0,0,1.186,0l1.421-1.421a.839.839,0,0,0,0-1.186l-1.413-1.412a.829.829,0,0,1-.158-.96,7.677,7.677,0,0,0,.473-1.141.828.828,0,0,1,.791-.567h2a.839.839,0,0,0,.839-.838v-2.01A.839.839,0,0,0,640.73,155.488ZM630.509,161.5a4.173,4.173,0,1,1,4.174-4.173A4.171,4.171,0,0,1,630.509,161.5Z" transform="translate(-584.316 -114.267)" fill="#c3dbe6"/>
      <path id="Path_25575" data-name="Path 25575" d="M618.711,112.374h-1.234a.512.512,0,0,1-.488-.35,4.853,4.853,0,0,0-.292-.7.511.511,0,0,1,.1-.593l.872-.872a.518.518,0,0,0,0-.732l-.878-.878a.518.518,0,0,0-.732,0l-.872.873a.512.512,0,0,1-.593.1,4.859,4.859,0,0,0-.7-.292.512.512,0,0,1-.35-.488V107.2a.518.518,0,0,0-.518-.518h-1.241a.518.518,0,0,0-.518.518v1.234a.512.512,0,0,1-.35.488,4.857,4.857,0,0,0-.7.292.512.512,0,0,1-.593-.1l-.872-.872a.517.517,0,0,0-.732,0l-.878.877a.518.518,0,0,0,0,.732l.873.872a.512.512,0,0,1,.1.593,4.854,4.854,0,0,0-.292.7.511.511,0,0,1-.488.35h-1.234a.518.518,0,0,0-.518.518v1.241a.518.518,0,0,0,.518.518h1.234a.511.511,0,0,1,.488.35,4.853,4.853,0,0,0,.292.7.512.512,0,0,1-.1.593l-.873.872a.518.518,0,0,0,0,.732l.878.877a.517.517,0,0,0,.732,0l.872-.872a.512.512,0,0,1,.593-.1,4.86,4.86,0,0,0,.7.292.511.511,0,0,1,.35.488v1.234a.518.518,0,0,0,.518.518h1.241a.518.518,0,0,0,.518-.518v-1.234a.512.512,0,0,1,.35-.488,4.863,4.863,0,0,0,.7-.292.512.512,0,0,1,.593.1l.872.873a.518.518,0,0,0,.732,0l.878-.878a.518.518,0,0,0,0-.732l-.872-.872a.511.511,0,0,1-.1-.593,4.852,4.852,0,0,0,.292-.7.512.512,0,0,1,.488-.35h1.234a.518.518,0,0,0,.518-.518v-1.241A.518.518,0,0,0,618.711,112.374ZM612.4,116.09a2.578,2.578,0,1,1,2.578-2.578A2.576,2.576,0,0,1,612.4,116.09Z" transform="translate(-581.656 -106.681)" fill="#c3dbe6"/>
    </g>
    <g id="Group_5299" data-name="Group 5299" transform="translate(370.232 17.667)">
      <rect id="Rectangle_198" data-name="Rectangle 198" width="15.164" height="23.353" transform="translate(6.244 14.712)" fill="#00aeee"/>
      <path id="Path_25584" data-name="Path 25584" d="M461.745,17.667l-13.826,17.2h27.652Z" transform="translate(-447.919 -17.667)" fill="#00aeee"/>
    </g>
    <g id="Group_5300" data-name="Group 5300" transform="translate(249.838 96.629)">
      <rect id="Rectangle_199" data-name="Rectangle 199" width="15.164" height="23.353" transform="translate(6.244)" fill="#ffcc06"/>
      <path id="Path_25585" data-name="Path 25585" d="M312.815,158.356l13.826-17.2H298.989Z" transform="translate(-298.989 -120.291)" fill="#ffcc06"/>
    </g>
    <g id="Group_5301" data-name="Group 5301" transform="translate(466.469 35.418)">
      <circle id="Ellipse_10" data-name="Ellipse 10" cx="14.528" cy="14.528" r="14.528" transform="matrix(0.16, -0.987, 0.987, 0.16, 0, 28.68)" fill="none" stroke="#a2c5d2" stroke-width="8.583"/>
      <path id="Path_25586" data-name="Path 25586" d="M576.872,72.824a14.522,14.522,0,0,1-7.259-12.581" transform="translate(-567.474 -43.576)" fill="none" stroke="#c3dbe6" stroke-width="8.583"/>
      <path id="Path_25587" data-name="Path 25587" d="M569.613,56.8a14.528,14.528,0,0,1,14.528-14.527" transform="translate(-567.474 -40.133)" fill="none" stroke="#dcecf0" stroke-width="8.583"/>
    </g>
    <g id="Group_5303" data-name="Group 5303" transform="translate(157.31 40.822)">
      <rect id="Rectangle_200" data-name="Rectangle 200" width="13.135" height="13.135" rx="2.296" fill="#c3dbe6"/>
      <g id="Group_5302" data-name="Group 5302" transform="translate(3.429 4.224)">
        <path id="Path_25588" data-name="Path 25588" d="M188.773,54.56l1.494,1.662,4.782-4.688" transform="translate(-188.773 -51.534)" fill="none" stroke="#fff" stroke-linecap="round" stroke-linejoin="round" stroke-width="2.218"/>
      </g>
    </g>
    <g id="Group_5305" data-name="Group 5305" transform="translate(504.724 238.388)">
      <rect id="Rectangle_201" data-name="Rectangle 201" width="13.135" height="13.135" rx="2.296" fill="#c3dbe6"/>
      <g id="Group_5304" data-name="Group 5304" transform="translate(3.429 4.224)">
        <path id="Path_25589" data-name="Path 25589" d="M618.531,298.954l1.494,1.662,4.782-4.688" transform="translate(-618.531 -295.928)" fill="none" stroke="#fff" stroke-linecap="round" stroke-linejoin="round" stroke-width="2.218"/>
      </g>
    </g>
    <g id="Group_5306" data-name="Group 5306" transform="translate(93.212 161.093)">
      <rect id="Rectangle_202" data-name="Rectangle 202" width="19.576" height="19.576" rx="3.422" fill="#c3dbe6"/>
      <path id="Path_25590" data-name="Path 25590" d="M111.562,207.384l2.227,2.478,7.127-6.987" transform="translate(-106.451 -196.58)" fill="none" stroke="#fff" stroke-linecap="round" stroke-linejoin="round" stroke-width="3.306"/>
    </g>
    <g id="Group_5307" data-name="Group 5307" transform="translate(236.029 39.688)">
      <rect id="Rectangle_203" data-name="Rectangle 203" width="5.218" height="5.544" transform="translate(0 12.997)" fill="#ffcc06"/>
      <rect id="Rectangle_204" data-name="Rectangle 204" width="5.218" height="8.892" transform="translate(7.472 9.649)" fill="#ffcc06"/>
      <rect id="Rectangle_205" data-name="Rectangle 205" width="5.218" height="13.143" transform="translate(14.944 5.398)" fill="#ffcc06"/>
      <rect id="Rectangle_206" data-name="Rectangle 206" width="5.218" height="18.541" transform="translate(22.416)" fill="#ffcc06"/>
    </g>
    <path id="Path_25591" data-name="Path 25591" d="M214.562,442.614h-8.1l-.8-13.112,7.9-.5Z" transform="translate(-31.271 -78.814)" fill="#ffc29f"/>
    <path id="Path_25592" data-name="Path 25592" d="M161.488,442.7l-7.9-.236,1.415-11.5,7.31,1.12Z" transform="translate(-21.292 -79.19)" fill="#ffc29f"/>
    <g id="Group_5308" data-name="Group 5308" transform="translate(131.452 227.265)">
      <path id="Path_25593" data-name="Path 25593" d="M168.39,276.944,152.544,408.291h9.7l23.015-95.582,9.806,95.582h9.59L202.3,276.944Z" transform="translate(-152.544 -276.944)" fill="#202c3a"/>
    </g>
    <path id="Path_25594" data-name="Path 25594" d="M243.562,214.268s1.6-3.086,1.482-4.506a7.923,7.923,0,0,1,1.037-5.635c.337-.509,1.277-1.861,1.277-1.861a1.675,1.675,0,0,1,.37,1.7,15.355,15.355,0,0,0-.675,1.816s.7-1.275,3.361-2.049c1.246-.362,6.151-1.606,6.151-1.606.694.008.6,1-.766,1.651,0,0,.609.629-.511,1.258,0,0,.784.586-.766,1.454,0,0,.617.5-.983,1.454-1.433.858-3.746,2.1-4.257,2.913a32.544,32.544,0,0,0-1.787,4.829Z" transform="translate(-38.531 -35.343)" fill="#ffc29f"/>
    <g id="Group_5309" data-name="Group 5309" transform="translate(141.155 164.799)">
      <path id="Path_25595" data-name="Path 25595" d="M177.56,199.708s-9.865,2.888-12.1,3.478,0,14.857,3.065,31.245,2.17,27.708,2.17,27.708H204.6s1.409-52.914.628-54.708c-1.415-3.25-15.636-7.758-15.636-7.758Z" transform="translate(-164.547 -199.672)" fill="url(#linear-gradient)"/>
    </g>
    <path id="Path_25596" data-name="Path 25596" d="M182.84,185.22s.337,8.122-1.078,11.384l1.729,3.282,4.559,2.77,2.888-2.165.846-2.472v-12.8Z" transform="translate(-26.69 -32.104)" fill="#ffa980"/>
    <g id="Group_5310" data-name="Group 5310" transform="translate(152.266 138.771)">
      <path id="Path_25597" data-name="Path 25597" d="M178.567,175.819a4.278,4.278,0,0,1,.1-3.257c.377-.83,1.011-1.519,1.416-2.335a7.359,7.359,0,0,1,1.107-2.1,2.509,2.509,0,0,1,2.242-.6,4.081,4.081,0,0,1,2.058,1.2,6.011,6.011,0,0,1,1.573,2.874,9.685,9.685,0,0,1-.113,4,6.731,6.731,0,0,1-1.407,3.324,3.893,3.893,0,0,1-2.528,1.239,3.136,3.136,0,0,1-2.844-1.074c-.259-.433-.385-.947-.614-1.4A19.912,19.912,0,0,1,178.567,175.819Z" transform="translate(-178.291 -167.476)" fill="#2b2f3a"/>
    </g>
    <path id="Path_25598" data-name="Path 25598" d="M196.989,169.158s1.965,18-3.3,20.595c-3.406,1.677-8.843-.118-9.668-8.136s2.786-11.921,7-12.459A19.949,19.949,0,0,1,196.989,169.158Z" transform="translate(-27.1 -28.987)" fill="#ffc29f"/>
    <path id="Path_25599" data-name="Path 25599" d="M183.253,180.152a1.553,1.553,0,0,0-2.4,0c-1.179,1.336.978,4.13,2.611,4.266Z" transform="translate(-26.452 -31.019)" fill="#ffc29f"/>
    <g id="Group_5311" data-name="Group 5311" transform="translate(155.239 134.481)">
      <path id="Path_25600" data-name="Path 25600" d="M186.289,170.432c.973.133,1.968.01,2.942.139a16.056,16.056,0,0,1,3.289,1.033,11.418,11.418,0,0,0,5.035.781,6.191,6.191,0,0,0,4.394-2.361,4.957,4.957,0,0,0-3.609-7.837c-1.946-.163-3.776.813-5.609,1.484a18.806,18.806,0,0,1-6.116,1.143,11.469,11.469,0,0,0-2.56.179,2.762,2.762,0,0,0-1.963,1.509c-.409,1.023.26,1.817,1.013,2.394A6.611,6.611,0,0,0,186.289,170.432Z" transform="translate(-181.968 -162.169)" fill="#2b2f3a"/>
    </g>
    <path id="Path_25601" data-name="Path 25601" d="M181.887,198.086s1.134,3.931,5.949,7.035c-.158,1.475-4.285,4.461-6.047-.461a25.309,25.309,0,0,1-1.146-5.257Z" transform="translate(-26.476 -34.569)" fill="#022643"/>
    <path id="Path_25602" data-name="Path 25602" d="M189.541,205.153a9.269,9.269,0,0,0,3.734-6.9l1.106,1.148s.819,4.909-.91,7.169C192.285,208.119,189.7,206.1,189.541,205.153Z" transform="translate(-28.181 -34.601)" fill="#022643"/>
    <path id="Path_25603" data-name="Path 25603" d="M168.178,277.576s3.42,5.188,4.893,6.367a11.955,11.955,0,0,1,2.607,3.673l-4.345,5.912a5.793,5.793,0,0,1-3.436-3.992c-.825-3.124-1.606-3.471-2.962-6.478l-1.356-3.006Z" transform="translate(-23.206 -49.8)" fill="#ffc29f"/>
    <g id="Group_5312" data-name="Group 5312" transform="translate(128.08 168.828)">
      <path id="Path_25604" data-name="Path 25604" d="M161.842,204.656s-5.027.31-7.385,9.507-5.292,24.321-6.078,30.767c-.333,2.73,14.184,26.65,14.184,26.65s2.885-2.618,5.453-4.807c0,0-8.024-16.767-8.024-22.9,0,0,7.2-20.007,7.435-26.057C167.662,211.687,167.694,205.29,161.842,204.656Z" transform="translate(-148.373 -204.656)" fill="url(#linear-gradient)"/>
    </g>
    <g id="Group_5313" data-name="Group 5313" transform="translate(173.527 172.398)">
      <path id="Path_25605" data-name="Path 25605" d="M212.9,209.231c1.882.285,7.626,13.087,11.28,19.69l3.655,6.6,8.843-22.638a5.026,5.026,0,0,1,4.716,2.123s-4.716,30.537-5.895,33.957-4.834,5.895-11.319-2.24-17.686-23.935-18.63-25.7S202.015,207.58,212.9,209.231Z" transform="translate(-204.592 -209.072)" fill="url(#linear-gradient)"/>
    </g>
    <path id="Path_25606" data-name="Path 25606" d="M206.315,444.674h7.546s.825,0,3.3,2.593,9.668.118,12.38,5.306H205.726A7.69,7.69,0,0,1,206.315,444.674Z" transform="translate(-31.12 -81.817)" fill="#202c3a"/>
    <g id="Group_5314" data-name="Group 5314" transform="translate(129.345 361.356)">
      <path id="Path_25607" data-name="Path 25607" d="M150.158,452.218c-.9-3.027,1.218-5.228,1.887-7.9.412-1.65,8.69-2.668,9.511.943a19.786,19.786,0,0,1,.157,6.957Z" transform="translate(-149.937 -442.817)" fill="#202c3a"/>
    </g>
    <rect id="Rectangle_207" data-name="Rectangle 207" width="11.908" height="1.887" transform="matrix(0.564, -0.826, 0.826, 0.564, 146.423, 244.578)" fill="#203b53"/>
    <rect id="Rectangle_208" data-name="Rectangle 208" width="33.954" height="2.436" transform="translate(147.298 227.265)" fill="#183250"/>
    <path id="Path_25608" data-name="Path 25608" d="M193.017,317.008l4.716-17.627-3.105,33.328Z" transform="translate(-28.847 -53.978)" fill="#183250"/>
    <path id="Path_25609" data-name="Path 25609" d="M214.965,234.059l.159-12.928,3,17.281Z" transform="translate(-33.052 -38.985)" fill="#022643"/>
    <path id="Path_25610" data-name="Path 25610" d="M168.311,234.507l2.2-8.008-.811,15.645S168.364,235.307,168.311,234.507Z" transform="translate(-24.113 -40.013)" fill="#022643"/>
    <g id="Group_5323" data-name="Group 5323" transform="translate(373.617 246.537)">
      <g id="Group_5316" data-name="Group 5316" transform="translate(80.62 54.397)">
        <path id="Path_25611" data-name="Path 25611" d="M567.535,436.79l-15.7-68.716H557.7L569.86,436.79A1.164,1.164,0,0,1,567.535,436.79Z" transform="translate(-551.835 -368.074)" fill="#2c4c6a"/>
      </g>
      <g id="Group_5317" data-name="Group 5317" transform="translate(40.957 54.397)">
        <path id="Path_25612" data-name="Path 25612" d="M518.471,436.79l-15.7-68.716h5.869L520.8,436.79A1.164,1.164,0,0,1,518.471,436.79Z" transform="translate(-502.771 -368.074)" fill="#2c4c6a"/>
      </g>
      <g id="Group_5318" data-name="Group 5318" transform="translate(0 54.397)">
        <path id="Path_25613" data-name="Path 25613" d="M454.432,436.79l15.7-68.716h-5.868L452.107,436.79A1.164,1.164,0,0,0,454.432,436.79Z" transform="translate(-452.107 -368.074)" fill="#a2c5d2"/>
      </g>
      <g id="Group_5319" data-name="Group 5319" transform="translate(49.847 0)">
        <path id="Path_25614" data-name="Path 25614" d="M566.209,300.784H534.281a4.894,4.894,0,0,0-4.6,3.221l-15.613,42.9a4.9,4.9,0,0,0,4.6,6.57H550.6a4.894,4.894,0,0,0,4.6-3.221l15.613-42.9A4.9,4.9,0,0,0,566.209,300.784Z" transform="translate(-513.769 -300.784)" fill="#a2c5d2"/>
      </g>
      <g id="Group_5320" data-name="Group 5320" transform="translate(6.005 52.687)">
        <path id="Path_25615" data-name="Path 25615" d="M543.292,369.379H461.245a1.71,1.71,0,0,1-1.71-1.71h0a1.71,1.71,0,0,1,1.71-1.71h82.047a1.71,1.71,0,0,1,1.71,1.71h0A1.71,1.71,0,0,1,543.292,369.379Z" transform="translate(-459.535 -365.959)" fill="#a2c5d2"/>
      </g>
      <g id="Group_5321" data-name="Group 5321" transform="translate(54.96 52.687)">
        <path id="Path_25616" data-name="Path 25616" d="M554.9,369.379H521.8a1.71,1.71,0,0,1-1.71-1.71h0a1.71,1.71,0,0,1,1.71-1.71H554.9a1.71,1.71,0,0,1,1.71,1.71h0A1.71,1.71,0,0,1,554.9,369.379Z" transform="translate(-520.094 -365.959)" fill="#91b9c4"/>
      </g>
      <g id="Group_5322" data-name="Group 5322" transform="translate(37.069 54.397)">
        <path id="Path_25617" data-name="Path 25617" d="M500.288,436.79l15.7-68.716h-5.869L497.962,436.79A1.164,1.164,0,0,0,500.288,436.79Z" transform="translate(-497.962 -368.074)" fill="#a2c5d2"/>
      </g>
    </g>
    <g id="Group_5324" data-name="Group 5324" transform="translate(430.615 198.576)">
      <path id="Path_25618" data-name="Path 25618" d="M531.169,245.167a5.544,5.544,0,0,0-5.109,5.363c-.393,5.109.525,7.762-1.675,12.871S520.4,275.369,529.6,276s12.024.236,14.854,2.437,12.479-4.48,9.021-10.376-4.775-9.275-3.361-13.834-1.564-9.558-7.073-11.712C538.413,240.7,534.628,240.983,531.169,245.167Z" transform="translate(-522.615 -241.455)" fill="#21323f"/>
    </g>
    <g id="Group_5325" data-name="Group 5325" transform="translate(404.975 228.818)">
      <path id="Path_25619" data-name="Path 25619" d="M522.7,281.593s1.286,4.009-1.881,15.564c-3.162,11.533-4.194,15.366-7.176,17.528-1.84,1.335-22.751,1.335-22.751,1.335v-5.894l18.395-2.24s2.327-11.414,4.678-18.579c.813-2.479,2.179-8.912,5.085-10.18S522.7,281.593,522.7,281.593Z" transform="translate(-490.897 -278.865)" fill="url(#linear-gradient)"/>
    </g>
    <g id="Group_5326" data-name="Group 5326" transform="translate(427.78 227.139)">
      <path id="Path_25620" data-name="Path 25620" d="M551.724,300.928c-.867,6.518-3.225,22.477-3.225,22.477H524.049s.736-9.762-.462-15.064a7.828,7.828,0,0,0-.867-2.386c-1.9-3.027-3.594-5.858-3.613-8.98a8.94,8.94,0,0,1,.311-2.34c1.094-4.084,2.745-13.13,4.791-15.638s12.237-2.2,12.237-2.2,13.323.04,17.316,2.272c1.064.6,1.471,1.934,1.556,3.537C555.592,287.6,552.375,296,551.724,300.928Z" transform="translate(-519.107 -276.788)" fill="url(#linear-gradient)"/>
    </g>
    <path id="Path_25621" data-name="Path 25621" d="M547.782,307.835s-18.638,1.5-24.194,5.292a7.828,7.828,0,0,0-.867-2.386c-1.9-3.027-3.594-5.858-3.613-8.98,1.235,2.566,4.386,5.971,12.4,6.074C544.4,307.986,547.782,307.835,547.782,307.835Z" transform="translate(-91.327 -54.434)" fill="#ffcc06"/>
    <path id="Path_25622" data-name="Path 25622" d="M558.691,302.308c-.867,6.518-3.226,22.477-3.226,22.477l1.17-37.72,5.65-3.075C562.558,288.98,559.341,297.375,558.691,302.308Z" transform="translate(-98.294 -51.029)" fill="#022643"/>
    <path id="Path_25623" data-name="Path 25623" d="M541.332,318.283s-11.661.429-15.322.665a25.769,25.769,0,0,0-5.39-1.415c-3.125-.235-5.875,2.888-6.7,5.894h27.024Z" transform="translate(-90.333 -57.454)" fill="#ffc29f"/>
    <g id="Group_5328" data-name="Group 5328" transform="translate(450.174 230.606)">
      <path id="Path_25624" data-name="Path 25624" d="M560.114,281.145a76.1,76.1,0,0,1,5.678,14.9c2.24,8.489,5.305,17.1,2.476,19.454s-20.988,1.415-20.988,1.415l-.471-6.367,13.832-2.24s-5.225-13.087-6.051-15.445-1.449-9.608,1.457-10.876S560.114,281.145,560.114,281.145Z" transform="translate(-546.809 -281.077)" fill="url(#linear-gradient)"/>
    </g>
    <g id="Group_5335" data-name="Group 5335" transform="translate(380.568 273.757)">
      <g id="Group_5331" data-name="Group 5331" transform="translate(0 83.638)">
        <path id="Path_25625" data-name="Path 25625" d="M479.731,444.57h-4.165l-.544-6.148,5.085-.505Z" transform="translate(-463.448 -437.917)" fill="#ffc29f"/>
        <g id="Group_5330" data-name="Group 5330" transform="translate(0 6.653)">
          <path id="Path_25626" data-name="Path 25626" d="M476.988,446.147s1.536,1.6,1.028,5.138c-.24,1.677-3.894,1.568-10.061,1.568h-6.139a1.113,1.113,0,0,1-.709-1.968,4.6,4.6,0,0,1,1.636-.844,58.769,58.769,0,0,0,10.08-3.894Z" transform="translate(-460.705 -446.147)" fill="#202c3a"/>
        </g>
      </g>
      <path id="Path_25627" data-name="Path 25627" d="M526.459,334.455c-.039,2.123,4.832,9.318,3.866,16.33-.634,4.6-4.582,9.137-13.8,9.137-12.58,0-32.624-.135-35.9,0-2.6.108-3.839.165-2.315,5.07,3.611,11.613.558,31.388-.39,58.153H472.43s-4.874-27.776-6.894-41.214c-3.145-20.909-7.919-29.111,1.179-33.447,9.622-4.585,46.318-14.031,46.318-14.031Z" transform="translate(-460.846 -334.455)" fill="#202c3a"/>
      <g id="Group_5333" data-name="Group 5333" transform="translate(11.856 83.638)">
        <path id="Path_25628" data-name="Path 25628" d="M494.4,444.57h-4.165l-.544-6.148,5.085-.505Z" transform="translate(-478.115 -437.917)" fill="#ffc29f"/>
        <g id="Group_5332" data-name="Group 5332" transform="translate(0 6.653)">
          <path id="Path_25629" data-name="Path 25629" d="M491.655,446.147s1.535,1.6,1.027,5.138c-.241,1.677-3.894,1.568-10.06,1.568h-6.14a1.112,1.112,0,0,1-.708-1.968,4.6,4.6,0,0,1,1.636-.844,58.767,58.767,0,0,0,10.08-3.894Z" transform="translate(-475.371 -446.147)" fill="#202c3a"/>
        </g>
      </g>
      <g id="Group_5334" data-name="Group 5334" transform="translate(11.585)">
        <path id="Path_25630" data-name="Path 25630" d="M540.053,334.455c-.04,2.123,4.833,9.318,3.867,16.33-.634,4.6-4.582,9.137-13.8,9.137h-35.9c-2.6,0-3.839.165-2.314,5.07,3.611,11.613,2,31.624.192,58.153h-5.509s-5.44-27.776-7.461-41.214c-3.144-20.909-7.918-29.111,1.179-33.447,9.622-4.585,43.514-14.031,43.514-14.031Z" transform="translate(-475.035 -334.455)" fill="#263d58"/>
      </g>
    </g>
    <g id="Group_5338" data-name="Group 5338" transform="translate(435.677 200.403)">
      <g id="Group_5336" data-name="Group 5336" transform="translate(2.785 18.233)">
        <path id="Path_25631" data-name="Path 25631" d="M532.321,277.079s-.074,5.209,3.458,8.2c0,0,7.5-3.5,10.214-8.184A70.762,70.762,0,0,0,532.321,277.079Z" transform="translate(-532.321 -268.277)" fill="#ffc29f"/>
        <path id="Path_25632" data-name="Path 25632" d="M534.21,274.923a2.174,2.174,0,0,0,1.848-2.357c0-2.17.217-6.3.217-6.3l6.956.589s-.589,6.814.53,8.064l1.12,1.251S535.329,277.8,534.21,274.923Z" transform="translate(-532.683 -266.27)" fill="#ffc29f"/>
      </g>
      <path id="Path_25633" data-name="Path 25633" d="M536.5,271.833s4.574.707,7.015-1.238l.155-3.6-7.171,1.552Z" transform="translate(-530.337 -248.176)" fill="#ffa980"/>
      <path id="Path_25634" data-name="Path 25634" d="M530.992,248.592s-6.131,16.81,2.477,18.7,10.375-7.074,10.375-7.074,2.225-.529,2.57-2.456c.334-1.867-2.255-1.16-2.255-1.16s2.288-6.913-2.908-9.236C535.789,244.92,532.054,246.2,530.992,248.592Z" transform="translate(-528.876 -244.162)" fill="#ffc29f"/>
      <g id="Group_5337" data-name="Group 5337" transform="translate(2.938)">
        <path id="Path_25635" data-name="Path 25635" d="M532.51,246.089a13.254,13.254,0,0,0,12.345,10.061s2.673-6.681.865-9.511S535.576,242.042,532.51,246.089Z" transform="translate(-532.51 -243.715)" fill="#21323f"/>
      </g>
    </g>
    <g id="Group_5343" data-name="Group 5343" transform="translate(378.244 234.759)">
      <g id="Group_5340" data-name="Group 5340" transform="translate(0 0)">
        <path id="Path_25636" data-name="Path 25636" d="M508.727,315.541H467.754l-9.816-26.97a1.756,1.756,0,0,1,1.65-2.357h37.235a1.756,1.756,0,0,1,1.65,1.155Z" transform="translate(-457.83 -286.214)" fill="#202c3a"/>
      </g>
      <g id="Group_5341" data-name="Group 5341" transform="translate(33.257 29.327)">
        <path id="Path_25637" data-name="Path 25637" d="M540.962,325.039H500.243a1.273,1.273,0,0,1-1.273-1.273h0a1.274,1.274,0,0,1,1.273-1.274h40.719a1.274,1.274,0,0,1,1.273,1.274h0A1.273,1.273,0,0,1,540.962,325.039Z" transform="translate(-498.97 -322.492)" fill="#202c3a"/>
      </g>
      <g id="Group_5342" data-name="Group 5342" transform="translate(8.778 29.327)">
        <path id="Path_25638" data-name="Path 25638" d="M510.68,325.039H469.961a1.273,1.273,0,0,1-1.273-1.273h0a1.274,1.274,0,0,1,1.273-1.274H510.68a1.274,1.274,0,0,1,1.274,1.274h0A1.273,1.273,0,0,1,510.68,325.039Z" transform="translate(-468.688 -322.492)" fill="#202c3a"/>
      </g>
    </g>
    <g id="Group_5345" data-name="Group 5345" transform="translate(200.968 266.633)">
      <path id="Path_25639" data-name="Path 25639" d="M634.885,428.72,612.008,328.591h8.551L638.273,428.72A1.7,1.7,0,0,1,634.885,428.72Z" transform="translate(-310.096 -326.208)" fill="#2c4c6a"/>
      <path id="Path_25640" data-name="Path 25640" d="M349.21,428.72,326.333,328.591h8.551L352.6,428.72A1.7,1.7,0,0,1,349.21,428.72Z" transform="translate(-255.359 -326.208)" fill="#2c4c6a"/>
      <path id="Path_25641" data-name="Path 25641" d="M241.925,428.72,264.8,328.591h-8.551L238.537,428.72A1.7,1.7,0,0,0,241.925,428.72Z" transform="translate(-238.537 -326.208)" fill="#c3dbe6"/>
      <path id="Path_25642" data-name="Path 25642" d="M513.737,428.72l22.877-100.129h-8.551L510.349,428.72A1.7,1.7,0,0,0,513.737,428.72Z" transform="translate(-290.618 -326.208)" fill="#c3dbe6"/>
      <rect id="Rectangle_209" data-name="Rectangle 209" width="330.45" height="4.766" rx="2.383" transform="translate(0)" fill="#a2c5d2"/>
      <path id="Path_25643" data-name="Path 25643" d="M553.984,330.409h72.605a2.383,2.383,0,0,0,2.383-2.382h0a2.383,2.383,0,0,0-2.383-2.383H553.984a2.383,2.383,0,0,0-2.383,2.383h0A2.383,2.383,0,0,0,553.984,330.409Z" transform="translate(-298.522 -325.643)" fill="#91b9c4"/>
    </g>
    <g id="Group_5349" data-name="Group 5349" transform="translate(246.813 234.759)">
      <g id="Group_5346" data-name="Group 5346" transform="translate(25.626 0)">
        <path id="Path_25644" data-name="Path 25644" d="M326.947,315.541h40.974l9.816-26.97a1.756,1.756,0,0,0-1.65-2.357H338.852a1.755,1.755,0,0,0-1.65,1.155Z" transform="translate(-326.947 -286.214)" fill="#202c3a"/>
      </g>
      <g id="Group_5347" data-name="Group 5347" transform="translate(0 29.327)">
        <path id="Path_25645" data-name="Path 25645" d="M296.521,325.039H337.24a1.273,1.273,0,0,0,1.273-1.273h0a1.274,1.274,0,0,0-1.273-1.274H296.521a1.274,1.274,0,0,0-1.274,1.274h0A1.274,1.274,0,0,0,296.521,325.039Z" transform="translate(-295.247 -322.492)" fill="#202c3a"/>
      </g>
      <g id="Group_5348" data-name="Group 5348" transform="translate(24.48 29.327)">
        <path id="Path_25646" data-name="Path 25646" d="M326.8,325.039h40.72a1.273,1.273,0,0,0,1.273-1.273h0a1.274,1.274,0,0,0-1.273-1.274H326.8a1.274,1.274,0,0,0-1.273,1.274h0A1.273,1.273,0,0,0,326.8,325.039Z" transform="translate(-325.529 -322.492)" fill="#202c3a"/>
      </g>
    </g>
  </g>
</svg>
