<svg xmlns="http://www.w3.org/2000/svg" width="16" height="10.667" viewBox="0 0 16 10.667">
  <path id="noun-registration-2013934" d="M15,200H1a1,1,0,0,0-1,1v8.667a1,1,0,0,0,1,1H15a1,1,0,0,0,1-1V201a1,1,0,0,0-1-1ZM2.82,201.82A1.674,1.674,0,1,1,2.333,203a1.674,1.674,0,0,1,.487-1.18Zm3.847,6.847H1.333v-.333a2.667,2.667,0,0,1,5.333,0Zm6.84-.667H8.5a.5.5,0,1,1,0-1h5.01a.5.5,0,1,1,0,1Zm0-2H8.5a.5.5,0,1,1,0-1h5.01a.5.5,0,1,1,0,1Zm0-2H8.5a.5.5,0,1,1,0-1h5.01a.5.5,0,1,1,0,1Z" transform="translate(0 -200)" fill="#fff" opacity="0.5"/>
</svg>
