<svg xmlns="http://www.w3.org/2000/svg" width="16" height="14.013" viewBox="0 0 16 14.013">
  <path id="Path_69316" data-name="Path 69316" d="M99.193,49.483h-2.24v-.825a.823.823,0,0,0,.758-.808.809.809,0,0,0-.808-.808H87.1a.809.809,0,0,0-.808.808.8.8,0,0,0,.758.808v.825h-2.24a.809.809,0,0,0-.808.808v.657a4.923,4.923,0,0,0,3.655,4.766l1.128.3.017.017c.034.034.067.084.1.118a4.11,4.11,0,0,0,1.9,1.112v1.2a.5.5,0,0,1-.505.505h-.876a.64.64,0,0,0-.64.64v.808a.64.64,0,0,0,.64.64h5.154a.64.64,0,0,0,.64-.64v-.808a.64.64,0,0,0-.64-.64H93.7a.5.5,0,0,1-.505-.505v-1.2a4.109,4.109,0,0,0,1.9-1.112c.034-.034.067-.084.1-.118l.017-.017,1.128-.3A4.938,4.938,0,0,0,100,50.948v-.657a.808.808,0,0,0-.808-.808ZM85.635,51.1h1.432a10.514,10.514,0,0,0,.556,2.863A3.223,3.223,0,0,1,85.635,51.1Zm8.707.606-.792.758a.543.543,0,0,0-.152.438l.2,1.078a.279.279,0,0,1-.1.269.255.255,0,0,1-.286.017l-.96-.522a.547.547,0,0,0-.236-.067.387.387,0,0,0-.236.067l-.96.522a.253.253,0,0,1-.286-.017.292.292,0,0,1-.118-.269l.2-1.078a.429.429,0,0,0-.152-.438l-.792-.758a.258.258,0,0,1-.067-.286.275.275,0,0,1,.219-.185l1.078-.152a.447.447,0,0,0,.371-.27l.472-.977A.261.261,0,0,1,92,49.685a.278.278,0,0,1,.253.152l.472.977a.471.471,0,0,0,.371.27l1.078.152a.275.275,0,0,1,.219.185.248.248,0,0,1-.05.286ZM96.38,53.98a11.306,11.306,0,0,0,.556-2.88h1.432A3.267,3.267,0,0,1,96.38,53.98Z" transform="translate(-84.001 -47.041)" fill="#fff" opacity="0.5"/>
</svg>
