<svg xmlns="http://www.w3.org/2000/svg" width="16" height="17.541" viewBox="0 0 16 17.541">
  <g id="Group_13135" data-name="Group 13135" transform="translate(2231.011 5723)" opacity="0.5">
    <path id="Path_31398" data-name="Path 31398" d="M247.813,28.306l-1.308-9.289a1.1,1.1,0,0,0-1.1-.948h-.588V17.9a3.337,3.337,0,1,0-6.673,0v.171h-.607a1.1,1.1,0,0,0-1.1.948l-.682,4.872a5.013,5.013,0,0,1,4.36,4.967,4.432,4.432,0,0,1-.057.72h6.654a1.112,1.112,0,0,0,1.1-1.27Zm-8.19-10.427a1.858,1.858,0,0,1,3.716,0v.171h-3.716Zm1.858,5.839a3.091,3.091,0,0,1-3.09-3.09.739.739,0,0,1,1.479,0,1.592,1.592,0,1,0,3.185,0,.739.739,0,0,1,1.479,0,3.046,3.046,0,0,1-3.052,3.09Z" transform="translate(-2462.836 -5737.562)" fill="#fff"/>
    <path id="Path_31399" data-name="Path 31399" d="M111.236,327.04a3.706,3.706,0,1,0,3.7,3.716A3.722,3.722,0,0,0,111.236,327.04Zm2.009,3.337-.758.7a.232.232,0,0,0-.057.171l.209,1a.278.278,0,0,1-.417.3l-.891-.512a.142.142,0,0,0-.171,0l-.891.512a.282.282,0,0,1-.417-.3l.209-1a.162.162,0,0,0-.057-.171l-.758-.7a.283.283,0,0,1,.171-.493l1.024-.114a.143.143,0,0,0,.133-.095l.417-.948a.292.292,0,0,1,.531,0l.436.948a.143.143,0,0,0,.133.095l1.024.114a.281.281,0,0,1,.133.493Z" transform="translate(-2338.531 -6039.911)" fill="#fff"/>
  </g>
</svg>
