<svg xmlns="http://www.w3.org/2000/svg" width="16" height="15.996" viewBox="0 0 16 15.996">
  <path id="Path_33504" data-name="Path 33504" d="M82.8,21.508l1.2.211a6.212,6.212,0,0,0,.619,1.493l-.7,1h0a.921.921,0,0,0,.1,1.174l.719.719a.921.921,0,0,0,1.18.1l1-.7a6.211,6.211,0,0,0,1.493.619l.211,1.2a.921.921,0,0,0,.911.762h1a.921.921,0,0,0,.908-.762l.211-1.2h0a6.222,6.222,0,0,0,1.493-.62l1,.7h0a.921.921,0,0,0,1.18-.1l.719-.719a.921.921,0,0,0,.1-1.18l-.7-1a6.2,6.2,0,0,0,.619-1.493l1.2-.211a.921.921,0,0,0,.764-.911v-1a.921.921,0,0,0-.762-.908l-1.2-.211h0a6.206,6.206,0,0,0-.619-1.493l.7-1h0a.921.921,0,0,0-.1-1.18l-.722-.722a.921.921,0,0,0-1.18-.1l-1,.7h0a6.21,6.21,0,0,0-1.493-.62l-.2-1.194a.921.921,0,0,0-.915-.761h-1a.921.921,0,0,0-.908.762l-.211,1.2h0a6.2,6.2,0,0,0-1.493.62l-1-.7h0a.921.921,0,0,0-1.18.1l-.722.716a.921.921,0,0,0-.1,1.18l.7,1h0A6.218,6.218,0,0,0,84,18.472l-1.2.2a.921.921,0,0,0-.762.915v1a.921.921,0,0,0,.762.915Zm4.121-4.531h0a4.378,4.378,0,1,1-1.3,3.116,4.405,4.405,0,0,1,1.3-3.116Zm2.851,1.881-.926-1.68a3.15,3.15,0,0,1,4.106,4.108l-1.672-.926a1.259,1.259,0,0,0-1.5-1.5Zm.266.836a.4.4,0,0,1,.286.689.413.413,0,0,1-.572,0,.4.4,0,0,1,.286-.694Zm-2.227,2.625a3.154,3.154,0,0,1-.687-3.419l1.672.926h0a1.262,1.262,0,0,0,1.5,1.5L91.224,23a3.155,3.155,0,0,1-3.416-.684Z" transform="translate(-82.036 -12.093)" fill="#fff" opacity="0.5"/>
</svg>
