<svg xmlns="http://www.w3.org/2000/svg" width="13.47" height="19.691" viewBox="0 0 13.47 19.691">
  <path id="noun-transactions-3849243" d="M217.782,67.376a.6.6,0,0,0-.2-.166.511.511,0,0,0-.528.021l-.083.062-1.181.787-1.274-.85h0a.534.534,0,0,0-.562-.01l-.023.014-1.259.846-1.264-.85a.518.518,0,0,0-.57,0l-1.274.85-1.258-.845-.04-.025a.518.518,0,0,0-.536.021l-1.264.85-1.181-.787-.083-.062a.511.511,0,0,0-.528-.021.862.862,0,0,0-.087.056.483.483,0,0,0-.193.345v18.7a.5.5,0,0,0,.083.29.6.6,0,0,0,.2.166.511.511,0,0,0,.528-.021l.083-.062,1.181-.787,1.264.85a.518.518,0,0,0,.57,0l1.264-.85,1.274.85a.518.518,0,0,0,.57,0l1.264-.85,1.264.85a.535.535,0,0,0,.58,0l1.275-.85,1.181.787.083.062a.586.586,0,0,0,.29.083.483.483,0,0,0,.238-.062.6.6,0,0,0,.2-.166.5.5,0,0,0,.083-.29V67.666a.5.5,0,0,0-.083-.29Zm-8.724,8.061h2.891l-.611-.611a.52.52,0,1,1,.736-.736l1.492,1.5a.491.491,0,0,1,.114.559.518.518,0,0,1-.477.321h-4.145a.518.518,0,0,1,0-1.036Zm4.145,3.108h-2.891l.611.611a.531.531,0,0,1,0,.736.562.562,0,0,1-.373.145.537.537,0,0,1-.363-.145l-1.492-1.5a.491.491,0,0,1-.114-.559.518.518,0,0,1,.477-.321H213.2a.518.518,0,0,1,0,1.036Z" transform="translate(-204.395 -67.145)" fill="#fff" opacity="0.5"/>
</svg>
