<svg xmlns="http://www.w3.org/2000/svg" width="62.81" height="58.133" viewBox="0 0 62.81 58.133">
  <g id="Group_20806" data-name="Group 20806" transform="translate(-1007.034 -181.904)">
    <path id="Path_31140" data-name="Path 31140" d="M143.056,44.8a11.36,11.36,0,0,0-10.831,14.6L115.744,75.88l-.942,8.476h7.534l4.238-4.238V75.409h4.709L132.7,74V69.288h4.709l2.354-2.354a11.31,11.31,0,1,0,3.3-22.132Zm0,8.005a3.3,3.3,0,1,1-3.3,3.3A3.3,3.3,0,0,1,143.056,52.806Z" transform="translate(1158.902 313.024) rotate(-165)" fill="#202c3a"/>
    <path id="Path_30816" data-name="Path 30816" d="M143.056,44.8a11.36,11.36,0,0,0-10.831,14.6L115.744,75.88l-.942,8.476h7.534l4.238-4.238V75.409h4.709L132.7,74V69.288h4.709l2.354-2.354a11.31,11.31,0,1,0,3.3-22.132Zm0,8.005a3.3,3.3,0,1,1-3.3,3.3A3.3,3.3,0,0,1,143.056,52.806Z" transform="matrix(-0.695, 0.719, -0.719, -0.695, 1174.941, 157.921)" fill="#ffcc06"/>
  </g>
</svg>
