<svg xmlns="http://www.w3.org/2000/svg" width="40" height="40" viewBox="0 0 40 40">
  <g id="Group_16351" data-name="Group 16351" transform="translate(-20 -40)">
    <circle id="Ellipse_195" data-name="Ellipse 195" cx="20" cy="20" r="20" transform="translate(20 40)" fill="#ffcc06"/>
    <path id="Path_30820" data-name="Path 30820" d="M130.56,77.782c-1.918,0-3.835-.016-5.749.008a2.3,2.3,0,0,1-1.786-3.991,10.063,10.063,0,0,1,4.279-2.541c1.234-.431,1.3-.619.515-1.618a5.27,5.27,0,0,1-1.015-4.953,3.824,3.824,0,0,1,4.2-2.8,3.956,3.956,0,0,1,3.567,3.867,5.484,5.484,0,0,1-1.354,4.051c-.607.731-.483,1,.376,1.382a38.663,38.663,0,0,1,3.619,1.806,4.386,4.386,0,0,1,1.226,1.23,2.079,2.079,0,0,1,.148,2.4,2.18,2.18,0,0,1-2.037,1.163c-2-.008-4,0-5.992,0Z" transform="translate(-90.584 -9.821)" fill="#2d2d2d"/>
  </g>
</svg>
